<svg width="534" height="442" viewBox="0 0 534 442" fill="none" xmlns="http://www.w3.org/2000/svg">
<path d="M399.116 69.0539C398.872 27.7072 466.14 3.37556 471.577 84.2809C505.428 87.883 511.978 126.825 482.809 159.007C505.882 175.505 499.415 199.754 483.809 226.401C496.524 239.17 499.828 253.314 492.783 268.967H400.642L399.116 69.0539Z" fill="#CBFFE8"/>
<path d="M436.024 237.765V269.872C436.024 270.428 435.803 270.962 435.41 271.355C435.016 271.748 434.483 271.969 433.927 271.969C433.371 271.969 432.838 271.748 432.444 271.355C432.051 270.962 431.83 270.428 431.83 269.872V159.701C431.658 159.615 431.496 159.51 431.347 159.388L418.404 148.82C417.87 148.379 417.532 147.745 417.464 147.055C417.396 146.366 417.604 145.678 418.042 145.141C418.48 144.604 419.113 144.263 419.802 144.192C420.491 144.12 421.181 144.325 421.719 144.76L431.83 153.016V97.189C431.83 96.6329 432.051 96.0996 432.444 95.7064C432.838 95.3132 433.371 95.0923 433.927 95.0923C434.483 95.0923 435.016 95.3132 435.41 95.7064C435.803 96.0996 436.024 96.6329 436.024 97.189V231.431L455.82 216.683L463.162 192.328C463.373 191.675 463.831 191.13 464.438 190.811C465.046 190.492 465.755 190.424 466.412 190.621C467.069 190.819 467.623 191.267 467.954 191.868C468.284 192.47 468.366 193.177 468.181 193.838L462.88 211.42L475.177 202.26C475.453 202.054 475.767 201.905 476.1 201.821C476.434 201.736 476.781 201.719 477.122 201.768C477.462 201.818 477.79 201.934 478.085 202.111C478.381 202.287 478.639 202.52 478.845 202.796C479.05 203.072 479.199 203.386 479.284 203.719C479.368 204.053 479.386 204.4 479.336 204.741C479.286 205.081 479.17 205.409 478.994 205.704C478.817 206 478.584 206.258 478.308 206.463L457.054 222.297L471.438 221.53C472.13 221.498 472.806 221.74 473.319 222.204C473.833 222.669 474.142 223.317 474.179 224.008C474.216 224.7 473.977 225.378 473.516 225.894C473.055 226.41 472.409 226.723 471.717 226.764L449.465 227.95L436.848 237.349C436.6 237.536 436.321 237.677 436.024 237.765Z" fill="#AFF3D7"/>
<path d="M508.383 268.966H414.452V394.81H508.383V268.966Z" fill="#AFF3D7"/>
<path d="M155.203 73.3826C150.414 60.7454 141.256 55.8602 129.714 55.2035C122.568 -31.7974 47.6833 -1.33668 55.457 55.2035C25.3168 55.3058 11.2899 91.6297 40.401 127.33C15.2845 138.549 13.338 168.045 36.4526 195.143C2.42184 216.846 21.6083 267.762 75.1993 288.192L119.366 289.009V107.114L155.203 73.3826Z" fill="#CBFFE8"/>
<path d="M27.1206 302.032V400.091H111.348V295.097L27.1206 302.032Z" fill="#CBFFE8"/>
<path d="M0 400.093C11.3002 394.828 20.8384 384.837 31.2581 385.122C32.8692 375.357 39.477 370.566 49.3012 368.967C50.2161 351.869 88.2791 335.646 98.3314 366.515C117.59 370.482 122.593 384.882 126.496 400.093H0Z" fill="#AFF3D7"/>
<path d="M482.812 318.788H420.063V400.089H482.812V318.788Z" fill="#E7FFF4"/>
<path d="M88.5877 123.178V69.058C88.5877 68.4556 88.827 67.8778 89.253 67.4518C89.679 67.0258 90.2568 66.7865 90.8593 66.7865C91.4617 66.7865 92.0396 67.0258 92.4656 67.4518C92.8916 67.8778 93.1308 68.4556 93.1308 69.058V169.659L110.643 156.892C110.921 156.685 111.237 156.536 111.573 156.453C111.909 156.369 112.258 156.353 112.6 156.405C112.942 156.457 113.27 156.577 113.566 156.756C113.862 156.936 114.119 157.172 114.323 157.452C114.527 157.732 114.673 158.049 114.754 158.385C114.835 158.722 114.848 159.071 114.793 159.413C114.738 159.755 114.616 160.082 114.433 160.376C114.251 160.67 114.012 160.926 113.731 161.127L93.2424 176.064C93.2055 176.091 93.1683 176.116 93.1308 176.141V271.056C93.1308 271.658 92.8916 272.236 92.4656 272.662C92.0396 273.088 91.4617 273.327 90.8593 273.327C90.2568 273.327 89.679 273.088 89.253 272.662C88.827 272.236 88.5877 271.658 88.5877 271.056V238.568L69.5659 223.775L54.329 224.556C53.9853 224.574 53.6414 224.523 53.3171 224.408C52.9928 224.293 52.6942 224.115 52.4387 223.884C52.1832 223.654 51.9758 223.375 51.8279 223.064C51.6801 222.753 51.595 222.416 51.5773 222.073C51.5597 221.729 51.6099 221.385 51.7252 221.061C51.8404 220.737 52.0183 220.438 52.2489 220.183C52.4795 219.927 52.7583 219.719 53.0692 219.572C53.38 219.424 53.7168 219.339 54.0606 219.321L63.2331 218.851L48.3048 207.242C47.756 206.816 47.3992 206.188 47.3129 205.499C47.2267 204.809 47.4179 204.113 47.8447 203.564C48.2714 203.016 48.8988 202.659 49.5886 202.573C50.2783 202.486 50.9739 202.678 51.5227 203.104L65.8372 214.236L60.1878 197.435C60.0765 197.108 60.0308 196.763 60.0533 196.419C60.0758 196.074 60.1662 195.738 60.3191 195.428C60.472 195.119 60.6843 194.843 60.9442 194.616C61.2041 194.389 61.5061 194.215 61.8332 194.105C62.1603 193.995 62.506 193.951 62.8502 193.975C63.1945 193.999 63.5307 194.09 63.8394 194.245C64.1481 194.399 64.4232 194.612 64.6492 194.873C64.8752 195.134 65.0475 195.437 65.1562 195.764L73.3248 220.059L88.5886 231.927V129.705L88.5048 129.644L78.9983 122.683H54.1963C53.5012 122.683 52.8346 122.407 52.3431 121.915C51.8516 121.424 51.5755 120.757 51.5755 120.062C51.5755 119.367 51.8516 118.7 52.3431 118.209C52.8346 117.717 53.5012 117.441 54.1963 117.441H72.0332L47.0811 98.6599C46.5257 98.242 46.1591 97.6205 46.0619 96.9323C45.9647 96.244 46.145 95.5453 46.5629 94.9899C46.9809 94.4345 47.6022 94.0679 48.2904 93.9707C48.9787 93.8735 49.6775 94.0536 50.2329 94.4716L65.4758 105.943L60.1409 87.0879C59.9654 86.4153 60.0644 85.7005 60.4159 85.1008C60.7674 84.501 61.3426 84.0655 62.0153 83.89C62.6879 83.7145 63.4027 83.8134 64.0024 84.1649C64.6021 84.5165 65.0378 85.0918 65.2133 85.7645L72.3956 111.15L88.5877 123.178Z" fill="#AFF3D7"/>
<path d="M533.342 400.21C523.802 396.449 516.868 390.131 511.592 382.188C506.509 368.75 497.744 367.41 487.845 369.798C476.886 354.175 462.064 353.927 443.964 366.725C424.144 370.251 418.248 383.75 416.489 400.21H533.342Z" fill="#CDFDE8"/>
<path d="M420.062 88.9398C420.062 86.9605 419.011 85.3528 417.031 85.3528H114.258C112.279 85.3528 111.352 86.9597 111.352 88.9398L110.671 428.4C110.672 429.351 111.05 430.263 111.722 430.936C112.395 431.608 113.307 431.986 114.258 431.987H417.035C417.986 431.986 418.898 431.608 419.571 430.936C420.244 430.263 420.622 429.351 420.622 428.4L420.062 88.9398Z" fill="#A5F8D6"/>
<path d="M420.062 72.6277C420.061 71.6803 419.685 70.7718 419.015 70.1019C418.345 69.4319 417.436 69.0554 416.489 69.0549H114.92C113.972 69.0554 113.064 69.4319 112.394 70.1019C111.724 70.7718 111.348 71.6803 111.347 72.6277V427.513C111.348 428.461 111.724 429.369 112.394 430.039C113.064 430.709 113.972 431.086 114.92 431.086H416.489C417.436 431.086 418.345 430.709 419.015 430.039C419.685 429.369 420.061 428.461 420.062 427.513V72.6277Z" fill="white"/>
<path d="M420.062 204.964L453.741 208.691V200.291L420.062 196.601V204.964Z" fill="#86ECC1"/>
<path d="M111.348 187.818L82.5117 191.015V199.732L111.348 196.595V187.818Z" fill="#86ECC1"/>
<path d="M111.147 267.348L3.4707 281.275V290.255L111.145 276.041L111.147 267.348Z" fill="#86ECC1"/>
<path d="M27.1206 287.137V302.031L111.155 295.096V276.044L27.1206 287.137Z" fill="#A5F8D6"/>
<path d="M50.3198 352.741C52.7838 376.436 54.4602 400.091 53.8623 423.631C53.8492 424.12 54.0123 424.598 54.3217 424.976C54.6311 425.355 55.0663 425.61 55.548 425.695C59.9296 426.51 64.4585 425.724 68.3084 423.479C68.5893 423.312 68.8257 423.08 68.9978 422.803C69.17 422.525 69.2727 422.211 69.2972 421.885C69.7283 416.164 71.7663 388.41 71.7663 388.41C73.8999 398.439 73.5844 411.459 73.1257 423.451C73.106 423.966 73.2822 424.47 73.6187 424.86C73.9553 425.251 74.4273 425.5 74.9398 425.557C78.8779 425.906 82.8401 425.885 86.7743 425.495C87.2662 425.45 87.7251 425.229 88.0661 424.872C88.4071 424.515 88.607 424.046 88.6286 423.552C90.0342 390.475 87.6013 358.249 84.2315 326.231L65.1694 327.803L50.3198 352.741Z" fill="#00969E"/>
<path d="M54.8563 275.036C54.5071 277.496 54.3528 279.981 54.395 282.465C57.4477 282.661 59.8992 285.37 61.6344 290.472C64.1521 290.701 66.6562 291.061 69.1364 291.551L64.844 284.506L64.3409 277.319C74.4158 278.982 74.4048 268.786 71.0216 258.952L55.6991 261.088L54.8563 275.036Z" fill="#A95C48"/>
<path d="M70.5876 262.156C71.3786 261.465 71.8873 260.507 72.0161 259.464C72.145 258.422 71.8851 257.368 71.2862 256.505C68.2594 252.01 62.8416 251.943 57.3105 252.081C44.634 245.136 37.3787 249.121 36.8051 256.307C36.192 263.981 42.3603 263.435 37.8063 285.94L42.773 283.375C41.879 286.813 39.5996 289.903 36.0444 292.676C37.857 292.711 39.6617 292.431 41.3783 291.848C41.4393 293.484 41.1405 295.114 40.5027 296.622C54.3584 286.977 55.5989 274.883 46.038 260.691C43.1027 256.338 48.788 252.59 51.2881 257.198C47.6818 261.7 49.8011 271.336 54.8818 275.516C57.5512 276.243 59.6889 270.323 57.3138 268.079C55.2314 266.11 58.4923 262.239 61.1357 265.176C62.5128 267.391 65.5086 266.668 70.5876 262.156Z" fill="#3C2032"/>
<path d="M50.3198 255.938C51.8035 254.012 53.6933 252.437 55.8549 251.325L55.9641 251.379C56.1665 251.481 56.3677 251.584 56.5679 251.689L56.9737 251.904L57.3093 252.087C54.9877 253.386 52.9406 255.123 51.2818 257.203C51.2138 257.073 51.1374 256.951 51.0569 256.824C50.8481 256.5 50.6007 256.202 50.3198 255.938Z" fill="#C01D5B"/>
<path d="M53.1644 386.92C54.9097 378.482 56.2207 367.756 57.3101 355.874L67.0949 354.476C68.153 354.325 69.1124 353.772 69.774 352.933C70.4357 352.093 70.7487 351.031 70.6483 349.967L69.2327 334.936C72.5035 334.271 76.2103 333.808 79.4769 331.89L80.4204 350.603C83.3641 351.482 85.3544 353.825 87.046 356.62L84.2339 326.228L65.1718 327.8L50.3223 352.74L53.1644 386.92Z" fill="#007A8E"/>
<path d="M64.3383 277.318L59.7256 276.815L64.5655 280.505L64.3383 277.318Z" fill="#7D402E"/>
<path d="M54.3587 282.465C50.8405 287.886 47.7718 290.081 47.1948 298.325C46.2471 311.87 46.8317 333.831 46.0928 350.197C46.075 350.565 46.1771 350.93 46.3838 351.235C46.5904 351.541 46.8906 351.771 47.2392 351.892C53.8647 354.118 60.7293 353.837 67.7565 351.857C68.1415 351.747 68.4754 351.504 68.6996 351.173C68.9239 350.841 69.024 350.441 68.9826 350.043C68.5406 345.757 67.2297 333.15 67.2297 333.15L81.6272 328.796V349.107H88.9035C84.0224 315.073 85.5698 301.323 64.8437 284.505C72.323 296.793 78.0494 308.685 80.4195 320.149L67.2297 322.043C66.8341 311.242 64.9462 300.547 61.6199 290.263C59.9409 285.674 57.7327 282.508 54.3587 282.465Z" fill="#FF9B00"/>
<path d="M61.6201 290.26C64.9748 300.288 66.632 310.844 67.23 322.04L80.4198 320.146C77.7553 307.276 73.0747 298.576 68.696 291.089L61.6201 290.26Z" fill="#FFC44D"/>
<path d="M67.4688 322.004L78.1258 306.149H103.805L89.2439 322.034L67.4688 322.004Z" fill="#00D052"/>
<path d="M94.3353 323.814C102.448 323.86 110.449 323.598 117.131 319.627V314.096L98.3325 312.123L87.3315 323.814H94.3353Z" fill="#FF9B00"/>
<path d="M48.6372 304.752C49.7183 312.363 49.8693 320.584 52.6168 327.406C52.8537 327.959 53.2164 328.45 53.6762 328.839C54.136 329.227 54.6801 329.503 55.2653 329.645C62.3588 331.135 71.6579 329.981 81.701 327.8C72.7272 331.037 63.7694 332.923 54.8468 331.972C53.8137 331.845 52.845 331.402 52.073 330.704C51.301 330.005 50.7633 329.086 50.5334 328.071C48.9265 320.547 48.8771 312.626 48.6372 304.752Z" fill="#FC8200"/>
<path d="M82.5117 327.229V322.03C85.7465 319.814 87.9421 316.243 89.9985 316.344C90.1253 316.356 90.2437 316.412 90.3339 316.502C90.5536 317.12 89.3552 318.608 88.2641 320.082C88.1017 320.305 88.0183 320.575 88.027 320.85C88.0356 321.126 88.136 321.39 88.312 321.602C88.488 321.814 88.7297 321.961 88.9987 322.02C89.2677 322.079 89.5488 322.046 89.7973 321.927C91.0797 321.23 92.2385 320.327 93.2273 319.253C93.3335 319.142 93.4698 319.064 93.6196 319.03C93.7694 318.995 93.926 319.005 94.07 319.059C94.2141 319.112 94.3395 319.207 94.4304 319.331C94.5213 319.455 94.5739 319.603 94.5817 319.756C94.7797 324.524 91.436 329.512 82.5117 327.229Z" fill="#A95C48"/>
<path d="M73.0513 359.442C75.6286 380.928 77.4769 402.766 77.0199 425.718L74.9316 425.51C74.4257 425.459 73.9586 425.216 73.6265 424.831C73.2944 424.446 73.1227 423.948 73.1469 423.441C73.8665 408.525 73.4261 396.985 71.7646 388.411L73.0513 359.442Z" fill="#007A8E"/>
<path d="M55.7716 425.715L54.3584 435.555L58.1416 436.823L63.2474 425.508C60.7871 426.018 58.2562 426.088 55.7716 425.715Z" fill="#A95C48"/>
<path d="M54.4867 434.66C53.0216 434.846 51.9817 437.009 52.1788 438.881C52.2269 439.39 52.4499 439.866 52.8098 440.229C53.1698 440.592 53.6445 440.819 54.153 440.872C57.9589 441.253 62.5396 441.291 67.2453 441.328C67.5891 441.331 67.9274 441.241 68.2245 441.068C68.5216 440.895 68.7665 440.646 68.9335 440.345C69.1005 440.045 69.1833 439.705 69.1733 439.361C69.1633 439.017 69.0608 438.683 68.8766 438.393C67.7478 436.587 64.5348 435.684 59.1179 434.665C58.3907 434.996 57.6009 435.167 56.8019 435.166C56.0029 435.165 55.2133 434.993 54.4867 434.66Z" fill="#FE7E00"/>
<path d="M59.1179 434.66C62.9758 435.443 66.0142 436.357 67.8996 437.717C67.9195 437.732 67.9337 437.754 67.9399 437.778C67.9461 437.802 67.9438 437.828 67.9336 437.85C67.9233 437.873 67.9058 437.892 67.8836 437.903C67.8614 437.914 67.836 437.918 67.8115 437.913C64.3034 437.207 59.554 435.807 56.4106 435.162C57.3362 435.163 58.254 434.993 59.1179 434.66Z" fill="#F59F00"/>
<path d="M76.3994 425.652L78.0524 436.332H82.5125L83.6026 425.714C81.2028 425.852 78.7965 425.832 76.3994 425.652Z" fill="#A95C48"/>
<path d="M77.7928 434.66C76.0643 434.92 74.9692 437.585 75.6904 439.508C75.8877 440.044 76.2447 440.507 76.7132 440.833C77.1817 441.16 77.7392 441.335 78.3104 441.335C80.434 441.345 88.5044 441.345 91.3324 441.345C91.7995 441.345 92.2474 441.159 92.5777 440.829C92.908 440.498 93.0936 440.051 93.0936 439.583C93.0558 439.187 92.9181 438.807 92.6936 438.478C92.2102 437.753 91.4849 437.224 90.6473 436.985L87.3327 436.039L82.513 434.664C81.7728 435.005 80.9675 435.181 80.1526 435.18C79.3377 435.18 78.5325 435.002 77.7928 434.66Z" fill="#FE7E00"/>
<path d="M90.203 436.935C90.2474 436.945 90.2862 436.972 90.3107 437.01C90.3351 437.049 90.3433 437.095 90.3334 437.14C90.3235 437.184 90.2963 437.223 90.2578 437.248C90.2194 437.272 90.1727 437.28 90.1282 437.27C86.667 436.825 83.845 435.998 79.998 435.182C80.8567 435.124 81.7032 434.949 82.5141 434.66C85.275 435.476 87.6173 436.079 90.203 436.935Z" fill="#F59F00"/>
<path d="M420.062 325.648H469.192V324.25H420.062V325.648Z" fill="#C5F8E2"/>
<path d="M420.249 340.081H455.91V339.382H420.249V340.081Z" fill="#CEF7E3"/>
<path d="M420.685 357.569H454.256V356.87H420.685V357.569Z" fill="#CEF7E3"/>
<path d="M330.18 69.0563L336.212 31.1012C337.516 22.2524 354.051 12.7602 363.582 25.1039C365.531 27.6371 366.823 30.6131 367.342 33.7665C368.768 42.399 373.158 69.0589 373.158 69.0589L330.18 69.0563Z" fill="#AFF3D7"/>
<path d="M337.333 195.145V269.871H411.458V204.363L337.333 195.145Z" fill="#FD7D00"/>
<path d="M405.092 215.608H343.878V254.749H405.092V215.608Z" fill="#F2A14A"/>
<path d="M358.672 221.085H349.195V232.508H358.672V221.085Z" fill="#5A1CB9"/>
<path d="M399.113 221.085H389.636V232.508H399.113V221.085Z" fill="#5A1CB9"/>
<path d="M385.141 221.085H363.813V249.424H385.141V221.085Z" fill="#5A1CB9"/>
<path d="M358.672 237.992H349.195V249.415H358.672V237.992Z" fill="#5A1CB9"/>
<path d="M411.458 269.869H299.73V394.815H411.458V269.869Z" fill="#FF9B00"/>
<path d="M411.458 319.632H326.282V394.819H411.458V319.632Z" fill="#FFC34D"/>
<path d="M332.694 325.978H411.459V324.334H332.694V325.978Z" fill="#F2A14A"/>
<path d="M335.208 339.721H411.459V340.42H334.859C334.813 340.42 334.767 340.411 334.725 340.393C334.682 340.376 334.644 340.35 334.611 340.317C334.579 340.285 334.553 340.246 334.535 340.204C334.518 340.162 334.509 340.116 334.509 340.07V328.796H335.207L335.208 339.721Z" fill="#F2A14A"/>
<path d="M335.208 356.872H411.459V357.571H334.859C334.766 357.571 334.677 357.534 334.611 357.469C334.546 357.403 334.509 357.314 334.509 357.221V345.856H335.207L335.208 356.872Z" fill="#F2A14A"/>
<path d="M335.208 373.692H411.459V374.39H334.859C334.766 374.39 334.677 374.353 334.611 374.288C334.546 374.222 334.509 374.133 334.509 374.04V363.001H335.207L335.208 373.692Z" fill="#F2A14A"/>
<path d="M447.18 324.95L450.578 428.498H480.706L475.983 324.95H447.18Z" fill="#FFC44D"/>
<path d="M122.914 110.103V199.734L319.677 188.477L411.459 199.734V110.103H122.914Z" fill="#CBFFE8"/>
<path d="M454.36 267.617C443.122 279.251 440.324 298.919 443.244 324.024C443.315 324.622 443.61 325.171 444.07 325.56C444.529 325.949 445.119 326.149 445.72 326.121L470.681 324.947L486.275 272.077L470.681 265.179L454.36 267.617Z" fill="#00D052"/>
<path d="M495.917 289.004L496.297 293.14C504.612 303.845 499.41 319.146 500.299 336.125C500.395 337.71 500.575 339.289 500.837 340.855C503.486 357.248 503.649 375.828 503.341 394.813L468.027 393.727C468.843 355.783 467.096 311.765 476.695 294.644C477.654 294.725 478.62 294.667 479.563 294.47C484.455 293.703 489.587 289.222 495.917 289.004Z" fill="#FF696A"/>
<path d="M494.032 295.7C499.656 303.889 499.7 314.124 488.352 316.647L500.177 316.329C500.768 307.61 500.58 299.438 494.032 295.7Z" fill="#E24F4F"/>
<path d="M492.326 294.769C495.046 295.941 497.289 297.998 498.69 300.607C499.472 302.172 499.898 303.89 499.936 305.639C500.041 310.205 500.45 329.049 500.513 331.962C500.518 332.215 500.529 332.466 500.546 332.717C500.895 338.073 501.074 343.489 501.897 348.943C495.388 351.304 488.364 351.876 481.559 350.602L482.415 328.796L478.773 313.161L481.526 302.162C481.581 301.941 481.649 301.724 481.73 301.511C482.352 299.947 483.319 298.542 484.558 297.402L483.44 296.512C481.728 298 480.062 299.806 479.819 302.646C479.819 302.657 478.651 314.38 478.651 314.38L480.707 327.876L479.819 367.512C483.703 368.76 487.798 369.211 491.86 368.836C495.922 368.461 499.866 367.269 503.456 365.331C503.612 344.448 501.746 333.797 501.365 304.051C501.326 301.404 500.303 298.867 498.496 296.934C497.297 295.713 495.906 294.696 494.379 293.926L492.326 294.769Z" fill="#FFC44D"/>
<path d="M460.629 350.603C459.721 376.566 461.412 402.531 463.942 428.495H467.591C463.701 402.695 461.376 376.683 460.629 350.603Z" fill="#F2A14A"/>
<path d="M455.723 428.496V433.128L459.581 433.871L463.946 433.128V428.496H455.723Z" fill="#A95D47"/>
<path d="M455.723 431.086C450.752 433.019 444.591 434.429 445.182 438.809C445.584 441.792 454.966 440.738 464.219 439.77C466.704 439.51 464.843 431.757 463.942 432.294C460.681 434.241 457.368 433.374 455.723 431.086Z" fill="#402A77"/>
<path d="M470.681 428.496V433.871L474.339 434.943L478.192 433.871V428.496H470.681Z" fill="#A95D47"/>
<path d="M476.948 283.204C477.09 287.206 476.671 291.209 475.704 295.096L480.073 293.102L480.706 283.443L479.494 281.277L476.948 283.204Z" fill="#382132"/>
<path d="M473.299 263.883C470.847 266.002 466.818 284.646 479.992 283.273C479.845 287.282 478.497 291.123 476.521 294.989L485.34 293.545L481.142 267.822L473.299 263.883Z" fill="#A95C48"/>
<path d="M470.681 432.876C464.209 433.128 459.51 434.817 457.036 437.395C456.816 437.624 456.668 437.913 456.611 438.225C456.553 438.538 456.589 438.86 456.714 439.153C456.838 439.445 457.046 439.695 457.311 439.87C457.576 440.045 457.886 440.139 458.204 440.139C463.027 440.159 472.267 440.159 472.267 440.159H480.707L478.191 432.298C475.995 434.212 473.515 434.537 470.681 432.876Z" fill="#402A77"/>
<path d="M455.723 431.086C456.333 431.944 457.184 432.603 458.167 432.979C453.48 433.71 449.023 435.508 445.142 438.236C445.124 436.235 446.652 434.863 449 433.702C450.759 432.832 452.847 432.184 455.723 431.086Z" fill="#4B3286"/>
<path d="M482.015 285.263C482.124 285.705 482.205 286.153 482.258 286.605C482.564 289.168 483.651 298.327 483.651 298.327L498.468 292.25C499.407 262.835 495.899 258.628 478.188 256.642C471.459 254.813 469.691 261.036 473.684 264.223C476.2 266.063 475.598 269.004 475.841 272.304C476.073 275.096 477.314 277.708 479.332 279.652C480.978 281.085 481.428 282.844 482.015 285.263Z" fill="#3C2032"/>
<path d="M498.611 316.095L488.352 316.654V327.753L479.868 313.786V311.639C484.145 310.407 484.635 303.913 480.707 302.126C473.863 301.128 473.139 308.454 475.704 312.871C478.521 322.18 480.85 331.846 487.697 338.278C488.047 338.601 488.459 338.848 488.907 339.005C489.356 339.162 489.832 339.225 490.307 339.191C490.781 339.157 491.243 339.026 491.665 338.806C492.086 338.586 492.459 338.283 492.758 337.914C495.911 334.079 497.564 325.957 498.611 316.095Z" fill="#A75E46"/>
<path d="M497.957 321.406C495.159 333.576 491.594 341.393 485.741 336.217C491.454 343.422 495.368 337.318 497.957 321.406Z" fill="#813F2C"/>
<path d="M474.436 393.924L480.29 435.929L485.741 435.555L487.514 409.917L492.499 434.658H497.514L500.607 393.922L474.436 393.924Z" fill="#A95D47"/>
<path d="M480.114 434.664C473.348 435.347 469.051 436.884 470.681 440.159C472.142 443.095 479.019 441.301 486.275 441.501C488.515 440.361 487.935 438.587 487.12 436.76C486.419 435.948 485.979 434.943 485.857 433.876C483.705 435.242 482.268 435.46 480.114 434.664Z" fill="#00AE47"/>
<path d="M497.693 432.298C499.975 433.097 502.793 437.582 498.611 439.135C492.35 441.461 487.368 442.248 484.7 441.934C484.208 441.853 483.757 441.608 483.422 441.239C483.087 440.869 482.887 440.397 482.855 439.899C482.458 435.264 489.256 435.88 492.142 432.876C493.011 433.375 494.015 433.588 495.011 433.484C496.007 433.381 496.946 432.966 497.693 432.298Z" fill="#00AE47"/>
<path d="M495.45 433.422C491.315 435.331 487.465 437.804 484.011 440.772C483.214 437.27 490.151 435.449 492.139 432.873C493.165 433.375 494.316 433.566 495.45 433.422Z" fill="#00CD55"/>
<path d="M481.908 435.099C478.258 435.668 474.701 436.547 471.578 438.858C471.963 435.923 476.408 435.372 480.113 434.66C480.69 434.883 481.293 435.03 481.908 435.099Z" fill="#00CD55"/>
<path d="M477.918 394.031C489.864 397.199 485.914 411.469 485.74 432.873L487.455 410.797C487.528 409.859 487.546 408.918 487.507 407.978C487.217 404.08 486.626 400.211 485.74 396.404C489.695 396.106 493.469 396.65 496.705 399.71C500.054 402.876 497.811 430.723 497.811 430.723L500.606 393.922L477.918 394.031Z" fill="#80402B"/>
<path d="M480.492 353.456C490.539 360.016 495.932 358.344 502.901 350.856" stroke="#F2A14A" stroke-width="0.833" stroke-linecap="round" stroke-linejoin="round"/>
<path d="M472.267 433.611C467.34 433.915 463.48 435.525 459.076 438.236C459.044 435.769 462.929 433.096 470.68 432.873L472.267 433.611Z" fill="#4B3286"/>
<path d="M454.36 267.614C455.719 273.22 460.952 271.659 470.681 265.182L468.978 249.008L459.963 239.904L452.786 240.775C450.284 243.583 450.244 247.998 451.025 252.953L458.721 261.993L454.36 267.614Z" fill="#A75E44"/>
<path d="M399.113 237.992H389.636V249.415H399.113V237.992Z" fill="#5A1CB9"/>
<path d="M361.313 418.463C361.128 418.463 360.95 418.389 360.819 418.258C360.688 418.127 360.614 417.95 360.614 417.764V414.582C358.53 414.624 357.595 416.041 356.95 417.421C356.882 417.566 356.768 417.683 356.624 417.754C356.481 417.824 356.319 417.843 356.163 417.809C356.007 417.774 355.868 417.687 355.769 417.562C355.669 417.437 355.615 417.282 355.616 417.123C355.633 414.289 356.314 412.212 357.639 410.952C358.461 410.191 359.501 409.709 360.613 409.575V406.575C360.613 406.437 360.655 406.302 360.731 406.187C360.808 406.072 360.917 405.983 361.045 405.93C361.173 405.877 361.313 405.863 361.449 405.89C361.584 405.917 361.709 405.983 361.807 406.081L367.401 411.675C367.532 411.806 367.606 411.984 367.606 412.169C367.606 412.355 367.532 412.532 367.401 412.664L361.807 418.258C361.742 418.323 361.665 418.374 361.581 418.41C361.496 418.445 361.405 418.463 361.313 418.463ZM360.653 413.179C360.887 413.179 361.132 413.192 361.383 413.217C361.556 413.234 361.716 413.315 361.832 413.444C361.948 413.572 362.012 413.74 362.012 413.913V416.076L365.918 412.169L362.012 408.262V410.207C362.012 410.386 361.943 410.557 361.821 410.687C361.698 410.817 361.53 410.895 361.352 410.905C360.338 410.915 359.361 411.291 358.603 411.964C357.934 412.644 357.48 413.505 357.298 414.441C357.746 414.02 358.273 413.691 358.849 413.475C359.425 413.259 360.038 413.158 360.653 413.18V413.179Z" fill="#00D789"/>
<path d="M169.131 417.823H169.09C168.69 417.812 168.303 417.683 167.975 417.454C167.7 417.694 167.347 417.825 166.982 417.825H164.85C164.448 417.825 164.062 417.665 163.778 417.381C163.494 417.097 163.334 416.711 163.334 416.309V411.026C163.335 410.624 163.495 410.24 163.778 409.955C163.918 409.814 164.085 409.702 164.269 409.626C164.453 409.55 164.65 409.511 164.85 409.511H166.982C167.181 409.51 167.379 409.549 167.563 409.625C167.747 409.702 167.914 409.814 168.054 409.955C168.174 410.074 168.272 410.213 168.345 410.365L168.417 410.331L168.432 410.326V407.855C168.432 407.331 168.64 406.829 169.011 406.459C169.381 406.089 169.883 405.88 170.407 405.88H170.62C171.143 405.88 171.645 406.089 172.015 406.459C172.386 406.829 172.594 407.331 172.595 407.855V409.508H173.543C173.859 409.508 174.172 409.57 174.463 409.692C174.755 409.814 175.019 409.993 175.241 410.218C175.462 410.443 175.637 410.71 175.755 411.004C175.872 411.297 175.93 411.611 175.925 411.927C175.975 413.35 175.678 414.763 175.058 416.045C174.749 416.584 174.304 417.031 173.768 417.343C173.231 417.654 172.622 417.819 172.002 417.82C170.911 417.823 169.149 417.823 169.131 417.823ZM167.8 415.093C167.961 415.094 168.118 415.15 168.243 415.253C168.368 415.356 168.453 415.498 168.484 415.657C168.554 416.01 168.669 416.389 169.155 416.425C169.48 416.425 171.007 416.425 171.998 416.42C172.371 416.421 172.739 416.323 173.063 416.137C173.387 415.95 173.656 415.681 173.843 415.357C174.349 414.279 174.585 413.094 174.53 411.904C174.532 411.773 174.508 411.644 174.46 411.522C174.411 411.401 174.339 411.291 174.248 411.197C174.156 411.104 174.047 411.03 173.926 410.98C173.806 410.929 173.676 410.903 173.546 410.903H171.897C171.712 410.903 171.534 410.83 171.403 410.699C171.272 410.568 171.199 410.391 171.198 410.206V407.85C171.198 407.697 171.137 407.55 171.029 407.441C170.921 407.333 170.774 407.272 170.621 407.272H170.408C170.255 407.272 170.108 407.333 170 407.441C169.892 407.55 169.831 407.697 169.831 407.85V410.835C169.831 410.998 169.774 411.156 169.67 411.281C169.566 411.407 169.422 411.492 169.262 411.522C169.063 411.559 168.88 411.657 168.739 411.802C168.599 411.948 168.507 412.135 168.478 412.335C168.441 412.487 168.354 412.621 168.231 412.718C168.108 412.814 167.957 412.866 167.801 412.866C167.773 412.866 167.745 412.864 167.717 412.861C167.548 412.84 167.392 412.758 167.279 412.63C167.166 412.502 167.103 412.338 167.103 412.167V411.017C167.103 410.986 167.091 410.956 167.069 410.934C167.047 410.912 167.017 410.9 166.986 410.9H164.853C164.821 410.9 164.791 410.913 164.769 410.934C164.758 410.945 164.749 410.959 164.743 410.973C164.737 410.987 164.734 411.003 164.734 411.018V416.302C164.734 416.333 164.747 416.363 164.769 416.385C164.791 416.407 164.821 416.419 164.852 416.419H166.985C167 416.42 167.016 416.417 167.03 416.411C167.045 416.405 167.058 416.396 167.069 416.385C167.08 416.374 167.088 416.361 167.094 416.347C167.1 416.332 167.103 416.317 167.103 416.301V415.785C167.103 415.612 167.167 415.444 167.283 415.315C167.4 415.187 167.561 415.106 167.734 415.09C167.754 415.094 167.777 415.093 167.8 415.093Z" fill="#00D789"/>
<path d="M219.136 83.3721C219.136 82.6189 218.836 81.8966 218.304 81.364C217.771 80.8314 217.049 80.5319 216.295 80.5315H152.106C151.353 80.5315 150.63 80.8308 150.098 81.3635C149.565 81.8962 149.266 82.6187 149.266 83.3721C149.266 84.1255 149.565 84.848 150.098 85.3807C150.63 85.9134 151.353 86.2127 152.106 86.2127H216.295C217.049 86.2122 217.771 85.9128 218.304 85.3802C218.836 84.8476 219.136 84.1253 219.136 83.3721Z" fill="#5A1CB9"/>
<path d="M178.8 94.3425C178.799 93.5893 178.5 92.8671 177.968 92.3344C177.435 91.8018 176.713 91.5024 175.959 91.502H152.108C151.354 91.502 150.632 91.8013 150.099 92.3341C149.566 92.8669 149.267 93.5895 149.267 94.343C149.267 95.0964 149.566 95.8191 150.099 96.3519C150.632 96.8847 151.354 97.184 152.108 97.184H175.959C176.713 97.1835 177.435 96.884 177.968 96.3512C178.5 95.8184 178.8 95.0959 178.8 94.3425Z" fill="#5A1CB9"/>
<path d="M122.914 96.5646C121.237 94.9164 120.089 92.8063 119.615 90.5032C119.141 88.2 119.364 85.808 120.254 83.6318C121.145 81.4556 122.663 79.5936 124.615 78.2831C126.567 76.9725 128.865 76.2727 131.217 76.2727C133.568 76.2727 135.866 76.9725 137.818 78.2831C139.771 79.5936 141.288 81.4556 142.179 83.6318C143.069 85.808 143.292 88.2 142.818 90.5032C142.345 92.8063 141.196 94.9164 139.519 96.5646C139.413 95.0218 138.878 93.5394 137.974 92.2847C137.07 91.0301 135.834 90.0532 134.404 89.4644C135.207 88.8074 135.788 87.9178 136.067 86.9176C136.345 85.9174 136.307 84.8556 135.959 83.8777C135.61 82.8998 134.967 82.0537 134.119 81.4555C133.27 80.8572 132.257 80.5361 131.219 80.5361C130.181 80.5361 129.168 80.8572 128.32 81.4555C127.471 82.0537 126.828 82.8998 126.479 83.8777C126.131 84.8556 126.093 85.9174 126.371 86.9176C126.65 87.9178 127.231 88.8074 128.035 89.4644C126.604 90.0525 125.366 91.029 124.461 92.2837C123.556 93.5384 123.02 95.0213 122.914 96.5646Z" fill="#5A1CB9"/>
<path d="M400.639 84.2888C401.676 84.2888 402.517 83.4477 402.517 82.4101C402.517 81.3726 401.676 80.5315 400.639 80.5315C399.601 80.5315 398.76 81.3726 398.76 82.4101C398.76 83.4477 399.601 84.2888 400.639 84.2888Z" fill="#FFB722"/>
<path d="M450.71 250.414C447.632 256.321 450.236 265.609 457.435 262.781C462.093 260.391 461.858 255.423 460.896 250.073C459.889 244.489 466.519 243.284 464.296 249.378C464.25 249.499 464.212 249.623 464.182 249.749C463.358 253.136 464.873 254.623 467.004 255.464C467.548 255.691 468.15 255.747 468.727 255.622C469.304 255.498 469.829 255.2 470.232 254.769C481.628 242.625 462.133 227.276 451.026 235.18C447.784 237.487 448.965 240.273 452.811 241.342C452.881 241.363 452.953 241.381 453.025 241.396C455.188 241.791 457.405 241.788 459.566 241.387C459.456 244.27 457.604 246.282 458.666 249.381C458.687 249.44 458.702 249.502 458.711 249.565C459.252 253.389 451.991 254.787 450.71 250.414Z" fill="#3A2031"/>
<path d="M406.05 84.2888C407.087 84.2888 407.928 83.4477 407.928 82.4101C407.928 81.3726 407.087 80.5315 406.05 80.5315C405.012 80.5315 404.171 81.3726 404.171 82.4101C404.171 83.4477 405.012 84.2888 406.05 84.2888Z" fill="#5A1CB9"/>
<path d="M411.458 84.2888C412.496 84.2888 413.337 83.4477 413.337 82.4101C413.337 81.3726 412.496 80.5315 411.458 80.5315C410.421 80.5315 409.58 81.3726 409.58 82.4101C409.58 83.4477 410.421 84.2888 411.458 84.2888Z" fill="#00D789"/>
<path d="M122.914 110.103V186.19L213.773 175.654L203.464 110.103H122.914Z" fill="#00969E"/>
<path d="M122.914 110.103H152.107C151.698 116.655 147.908 122.985 140.89 129.101C154.418 138.486 160.675 153.674 149.266 182.957L122.914 186.191V158.514C123.019 158.514 123.123 158.508 123.227 158.495C123.227 158.495 136.843 156.85 137.828 156.662C138.19 156.612 138.536 156.482 138.841 156.28C139.146 156.079 139.402 155.811 139.589 155.497C139.796 155.191 139.932 154.843 139.989 154.478C140.046 154.114 140.022 153.741 139.919 153.387C139.819 152.94 139.595 152.53 139.272 152.205C138.949 151.879 138.541 151.652 138.095 151.548C137.722 151.45 137.334 151.424 136.95 151.47C136.775 151.484 136.602 151.516 136.433 151.564L124.376 153.069C124.427 153.035 124.476 152.999 124.524 152.961L134.96 144.831C135.509 144.404 135.865 143.777 135.951 143.087C136.036 142.397 135.845 141.701 135.417 141.153C134.99 140.604 134.363 140.248 133.673 140.162C132.983 140.077 132.287 140.269 131.739 140.696L122.914 147.573V110.103Z" fill="#00D789"/>
<path d="M324.295 110.103L316.45 162.969L312.76 187.904L411.455 196.039V110.103H324.295Z" fill="#00969E"/>
<path d="M411.457 124.682L410.199 117.345C410.082 116.66 409.697 116.05 409.129 115.649C408.561 115.247 407.858 115.088 407.173 115.206C406.488 115.323 405.877 115.708 405.476 116.276C405.075 116.844 404.916 117.548 405.033 118.233L408.34 137.494L392.807 133.217C392.474 133.121 392.125 133.092 391.78 133.131C391.435 133.171 391.102 133.278 390.799 133.448C390.496 133.617 390.23 133.845 390.016 134.118C389.802 134.391 389.644 134.704 389.552 135.039C389.46 135.373 389.435 135.723 389.479 136.067C389.523 136.411 389.635 136.743 389.808 137.044C389.982 137.344 390.213 137.608 390.489 137.818C390.764 138.029 391.079 138.182 391.415 138.27L404.407 141.851L394.717 145.716C394.396 145.843 394.103 146.031 393.855 146.271C393.607 146.511 393.409 146.798 393.272 147.115C393.135 147.432 393.062 147.772 393.058 148.117C393.053 148.462 393.116 148.805 393.244 149.125C393.372 149.446 393.562 149.738 393.803 149.985C394.044 150.232 394.331 150.429 394.648 150.564C394.966 150.7 395.307 150.771 395.652 150.775C395.997 150.778 396.339 150.714 396.659 150.585L411.459 144.68V196.043L363.344 190.641C363.112 171.519 370.364 161.526 381.97 156.842C372.448 146.878 364.998 132.323 366.907 110.106H411.458L411.457 124.682Z" fill="#00D789"/>
<path d="M122.914 186.194L357.352 159.009V167.782L122.914 195.146V186.194Z" fill="#5A1CB9"/>
<path d="M122.914 195.146L337.334 170.123V269.872H299.729V394.815H122.914V195.146Z" fill="#FFC34D"/>
<path d="M275.147 177.072V394.812H122.914V195.142L275.147 177.072Z" fill="#FD7D00"/>
<path d="M122.914 292.606L198.418 285.942L198.193 394.813H122.914V292.606Z" fill="#FF9B00"/>
<path d="M162.331 319.632H122.914V364.694H162.331V319.632Z" fill="#FFC34D"/>
<path d="M136.517 324.946H122.914V358.837H136.517V324.946Z" fill="#5A1CB9"/>
<g style="mix-blend-mode:lighten" opacity="0.698">
<path d="M198.417 262.777L198.192 394.811H172.928V265.912L198.417 262.777Z" fill="#FFC34D"/>
</g>
<path d="M157.852 324.946H141.666V339.732H157.852V324.946Z" fill="#5A1CB9"/>
<path d="M157.852 344.06H141.666V358.846H157.852V344.06Z" fill="#5A1CB9"/>
<path d="M122.914 394.817V381.191C126.207 378.926 129.573 378.857 133.02 381.191C142.722 371.74 150.976 374.771 158.498 384.116C165.962 383.954 171.644 386.946 175.224 393.656C182.358 388.565 189.919 387.961 198.193 394.817L122.914 394.817Z" fill="#00D789"/>
<path d="M255.608 322.866H216.3V394.816H255.608V322.866Z" fill="#F2A14A"/>
<path d="M250.745 326.228H221.056V340.074H250.745V326.228Z" fill="#5A1CB9"/>
<path d="M234.29 344.488H221.056V394.817H234.29V344.488Z" fill="#5A1CB9"/>
<path d="M250.735 344.488H237.501V394.817H250.735V344.488Z" fill="#5A1CB9"/>
<path d="M122.914 201.305L268.507 184.771V246.491L122.914 265.914V201.305Z" fill="#FF9B00"/>
<path d="M250.735 205.878H147.343V250.068H250.735V205.878Z" fill="#FFC34D"/>
<path d="M168.295 210.558H152.108V225.344H168.295V210.558Z" fill="#5A1CB9"/>
<path d="M319.02 51.3587L227.696 41.9286L227.168 47.0386L318.492 56.4687L319.02 51.3587Z" fill="#5A1CB9"/>
<path d="M249.498 49.2025C242.771 56.1711 241.035 74.0692 251.211 83.3165L251.779 77.8173C246.678 73.093 245.19 59.2968 252.965 49.704L249.498 49.2025Z" fill="#5A1CB9"/>
<path d="M294.188 53.8184C299.349 62.014 297.39 79.8895 285.54 86.8623L286.108 81.3631C292.067 77.7811 296.339 64.5795 290.692 53.6029L294.188 53.8184Z" fill="#5A1CB9"/>
<path d="M252.556 29.7058C252.673 29.6228 252.77 29.5166 252.844 29.3939C252.917 29.2712 252.964 29.1347 252.982 28.993C253 28.8512 252.989 28.7072 252.949 28.5701C252.908 28.433 252.84 28.3057 252.748 28.1962C248.128 24.6192 227.367 23.6178 223.601 25.5451C223.552 25.5922 223.514 25.6498 223.49 25.7135C223.466 25.7773 223.456 25.8456 223.462 25.9135C223.468 25.9814 223.489 26.0471 223.523 26.1059C223.558 26.1646 223.605 26.2149 223.662 26.253C228.853 29.1758 247.613 31.7547 252.556 29.7058Z" fill="#FFAC00"/>
<path d="M223.463 25.8136C239.083 26.2413 250.565 27.2335 252.776 29.4887C253.245 28.7213 253.155 28.1049 251.287 27.3601C250.963 27.231 250.603 27.075 250.208 26.9341C249.542 26.6967 248.782 26.4761 247.949 26.2707C246.233 25.8634 244.497 25.5431 242.749 25.3112C242.601 25.2903 242.446 25.2735 242.298 25.2517C235.994 24.3249 228.284 24.2243 224.713 25.162C224.092 25.3247 223.443 25.4446 223.463 25.8136Z" fill="#E88400"/>
<path d="M358.115 40.6059C358.232 40.5229 358.33 40.4167 358.403 40.294C358.476 40.1714 358.523 40.0349 358.542 39.8931C358.56 39.7513 358.548 39.6074 358.508 39.4703C358.467 39.3331 358.399 39.2058 358.307 39.0963C353.687 35.5194 332.926 34.518 329.16 36.4453C329.111 36.4924 329.073 36.5499 329.049 36.6137C329.025 36.6774 329.015 36.7457 329.021 36.8136C329.027 36.8815 329.048 36.9473 329.082 37.006C329.117 37.0647 329.164 37.115 329.221 37.1531C334.411 40.0759 353.173 42.6548 358.115 40.6059Z" fill="#FFAC00"/>
<path d="M329.024 36.7166C344.644 37.1443 356.126 38.1356 358.337 40.3916C358.806 39.6242 358.716 39.0078 356.848 38.2631C356.524 38.1339 356.164 37.9779 355.769 37.837C355.103 37.5997 354.343 37.3791 353.51 37.1736C351.794 36.7663 350.058 36.4461 348.31 36.2142C348.162 36.1941 348.007 36.1764 347.859 36.1546C341.555 35.2279 333.845 35.1273 330.274 36.0649C329.653 36.2251 329.004 36.345 329.024 36.7166Z" fill="#E88400"/>
<path d="M225.773 24.7512C225.791 24.5864 225.775 24.4198 225.728 24.261C225.681 24.1021 225.603 23.9542 225.498 23.8256C225.394 23.697 225.265 23.5903 225.119 23.5117C224.973 23.4331 224.813 23.384 224.649 23.3674L218.282 22.7098C218.117 22.6924 217.951 22.7077 217.792 22.7549C217.633 22.8021 217.485 22.8801 217.357 22.9846C217.228 23.0891 217.121 23.218 217.043 23.3639C216.964 23.5097 216.915 23.6697 216.898 23.8345L216.639 26.3455C216.622 26.5103 216.637 26.6769 216.684 26.8357C216.731 26.9945 216.81 27.1425 216.914 27.2711C217.019 27.3997 217.147 27.5063 217.293 27.585C217.439 27.6636 217.599 27.7127 217.764 27.7293L224.13 28.3868C224.295 28.4042 224.462 28.3889 224.62 28.3418C224.779 28.2946 224.927 28.2165 225.056 28.112C225.184 28.0075 225.291 27.8787 225.37 27.7328C225.448 27.587 225.497 27.427 225.514 27.2622L225.773 24.7512Z" fill="#5A1CB9"/>
<path d="M331.335 35.6504C331.352 35.4856 331.337 35.319 331.289 35.1602C331.242 35.0013 331.164 34.8534 331.06 34.7248C330.955 34.5962 330.826 34.4896 330.681 34.4109C330.535 34.3323 330.375 34.2832 330.21 34.2666L323.843 33.6116C323.678 33.5942 323.511 33.6095 323.353 33.6566C323.194 33.7038 323.046 33.7819 322.917 33.8864C322.789 33.9909 322.682 34.1197 322.603 34.2656C322.525 34.4114 322.476 34.5714 322.459 34.7362L322.2 37.2472C322.182 37.412 322.198 37.5786 322.245 37.7374C322.292 37.8963 322.37 38.0442 322.475 38.1728C322.579 38.3014 322.708 38.4081 322.854 38.4867C323 38.5653 323.16 38.6144 323.325 38.6311L329.691 39.2886C329.856 39.306 330.022 39.2907 330.181 39.2435C330.34 39.1963 330.488 39.1183 330.616 39.0138C330.745 38.9093 330.852 38.7804 330.93 38.6345C331.009 38.4887 331.058 38.3288 331.075 38.1639L331.335 35.6504Z" fill="#5A1CB9"/>
<path d="M286.136 38.3673C286.242 37.3359 285.934 36.3045 285.28 35.5C284.626 34.6954 283.68 34.1835 282.648 34.0766L265.652 32.3221C264.621 32.2161 263.59 32.524 262.785 33.178C261.98 33.8321 261.469 34.7788 261.362 35.8102L259.562 53.2412C259.456 54.2727 259.764 55.304 260.418 56.1086C261.072 56.9131 262.019 57.4251 263.05 57.5319L280.046 59.2872C281.077 59.3933 282.108 59.0855 282.913 58.4316C283.717 57.7778 284.229 56.8312 284.336 55.8L286.136 38.3673Z" fill="#402A77"/>
<path d="M281.471 37.1382C281.557 36.3042 281.308 35.4703 280.779 34.8197C280.25 34.1691 279.485 33.7551 278.651 33.6686L264.909 32.2495C264.075 32.1637 263.241 32.4125 262.59 32.9412C261.94 33.4699 261.525 34.2353 261.439 35.0692L259.485 53.9888C259.399 54.8229 259.648 55.6568 260.177 56.3073C260.706 56.9579 261.471 57.3719 262.305 57.4584L276.048 58.8775C276.882 58.9631 277.716 58.7141 278.366 58.1853C279.017 57.6564 279.431 56.8909 279.517 56.057L281.471 37.1382Z" fill="#4B3286"/>
<path d="M291.752 44.9711C291.86 43.9215 291.546 42.8721 290.881 42.0534C290.215 41.2347 289.252 40.7137 288.202 40.6049L258.224 37.5094C257.175 37.4015 256.125 37.7148 255.307 38.3803C254.488 39.0458 253.967 40.0092 253.858 41.0587L252.073 58.353C251.965 59.4026 252.278 60.452 252.943 61.2707C253.609 62.0894 254.572 62.6104 255.622 62.7191L285.6 65.8147C286.649 65.9226 287.699 65.6095 288.518 64.9441C289.336 64.2787 289.857 63.3156 289.966 62.2663L291.752 44.9711Z" fill="#E78300"/>
<path d="M285.52 44.3278C285.628 43.2784 285.315 42.2291 284.65 41.4104C283.984 40.5917 283.021 40.0706 281.972 39.9617L258.224 37.5094C257.175 37.4015 256.125 37.7148 255.307 38.3803C254.488 39.0458 253.967 40.0092 253.858 41.0587L252.073 58.353C251.965 59.4026 252.278 60.452 252.943 61.2707C253.609 62.0894 254.572 62.6104 255.622 62.7191L279.369 65.1714C280.418 65.2793 281.468 64.9661 282.286 64.3005C283.105 63.635 283.626 62.6716 283.735 61.6222L285.52 44.3278Z" fill="#FFAC00"/>
<path d="M267.279 42.1809C267.31 41.8805 267.221 41.5802 267.03 41.3458C266.84 41.1115 266.564 40.9624 266.264 40.9313L258.033 40.0817C257.733 40.0507 257.433 40.1402 257.198 40.3306C256.964 40.521 256.815 40.7966 256.784 41.0969C256.753 41.3972 256.842 41.6975 257.033 41.9318C257.223 42.1661 257.499 42.3151 257.799 42.3461L266.029 43.1957C266.329 43.2269 266.63 43.1376 266.864 42.9472C267.099 42.7569 267.248 42.4813 267.279 42.1809Z" fill="#FFDB00"/>
<path d="M271.207 35.7665C271.234 35.4982 271.154 35.2299 270.984 35.0206C270.814 34.8114 270.568 34.6781 270.299 34.6502L265.87 34.1931C265.604 34.169 265.339 34.2508 265.132 34.4209C264.925 34.591 264.794 34.8357 264.767 35.1019C264.739 35.3681 264.818 35.6344 264.985 35.8431C265.153 36.0518 265.396 36.1861 265.662 36.2168L270.091 36.6739C270.359 36.7014 270.627 36.6212 270.837 36.4511C271.046 36.281 271.179 36.0347 271.207 35.7665Z" fill="#7421FF"/>
<path d="M290.356 58.4933L252.463 54.5801L252.136 57.7503L290.029 61.6635L290.356 58.4933Z" fill="#8E3C06"/>
<path d="M190.964 21.5374C190.847 21.6204 190.749 21.7266 190.676 21.8492C190.603 21.9719 190.556 22.1084 190.538 22.2502C190.52 22.392 190.531 22.5359 190.571 22.673C190.612 22.8101 190.68 22.9375 190.772 23.047C195.392 26.6239 216.153 27.6253 219.919 25.698C219.968 25.6509 220.006 25.5934 220.03 25.5296C220.054 25.4659 220.063 25.3976 220.058 25.3297C220.052 25.2618 220.031 25.196 219.996 25.1373C219.962 25.0786 219.915 25.0283 219.858 24.9902C214.666 22.0649 195.906 19.486 190.964 21.5374Z" fill="#FFAC00"/>
<path d="M296.522 32.4377C296.405 32.5207 296.308 32.6269 296.234 32.7496C296.161 32.8722 296.114 33.0087 296.096 33.1505C296.078 33.2923 296.089 33.4362 296.129 33.5733C296.17 33.7105 296.238 33.8378 296.33 33.9473C300.95 37.5242 321.71 38.5256 325.477 36.5983C325.526 36.5512 325.564 36.4937 325.588 36.4299C325.612 36.3662 325.622 36.2979 325.616 36.23C325.61 36.1621 325.589 36.0963 325.555 36.0376C325.52 35.9789 325.473 35.9286 325.416 35.8905C320.225 32.9677 301.464 30.3888 296.522 32.4377Z" fill="#FFAC00"/>
<path d="M220.055 25.4282C204.435 25.0005 192.952 24.0092 190.742 21.7532C190.273 22.5206 190.363 23.137 192.23 23.8817C192.555 24.0109 192.915 24.1669 193.31 24.3078C193.975 24.5451 194.735 24.7657 195.569 24.9712C197.285 25.3785 199.02 25.6987 200.769 25.9306C200.916 25.9516 201.072 25.9683 201.22 25.9902C207.523 26.9169 215.234 27.0175 218.804 26.0799C219.428 25.9164 220.074 25.7973 220.055 25.4282Z" fill="#E88400"/>
<path d="M325.615 36.3299C309.995 35.9021 298.513 34.9108 296.302 32.6548C295.833 33.4222 295.923 34.0386 297.791 34.7833C298.115 34.9125 298.475 35.0685 298.87 35.2094C299.536 35.4467 300.296 35.6673 301.13 35.8728C302.846 36.2801 304.581 36.6003 306.329 36.8322C306.477 36.8532 306.632 36.87 306.781 36.8918C313.084 37.8185 320.795 37.9192 324.365 36.9815C324.986 36.8188 325.636 36.6989 325.615 36.3299Z" fill="#E88400"/>
<path d="M218.82 27.8274C219.036 31.5259 217.265 34.6047 212.651 36.8012L227.106 38.2941C222.879 34.6567 221.862 31.3515 222.741 28.2425L218.82 27.8274Z" fill="#402A77"/>
<path d="M324.381 38.729C324.598 42.4276 322.826 45.5072 318.212 47.7028L332.667 49.1957C328.44 45.5583 327.423 42.2531 328.302 39.1442L324.381 38.729Z" fill="#402A77"/>
<path d="M220.949 28.0524C220.282 33.3193 221.985 36.2983 224.936 38.0738L212.651 36.8048C217.382 34.5404 219.155 31.4549 218.764 27.7773L220.949 28.0524Z" fill="#4B3286"/>
<path d="M326.509 38.9509C325.838 44.2178 327.546 47.1967 330.496 48.9722L318.211 47.7041C322.942 45.4397 324.715 42.3542 324.325 38.6758L326.509 38.9509Z" fill="#4B3286"/>
<path d="M229.965 42.1481C230.17 41.6606 230.258 41.1318 230.222 40.6041C230.186 40.0764 230.027 39.5645 229.758 39.1093C229.488 38.6542 229.116 38.2686 228.67 37.9833C228.225 37.698 227.719 37.521 227.193 37.4666L213.042 36.0039C212.51 35.9489 211.972 36.0182 211.471 36.2062C210.97 36.3943 210.52 36.696 210.155 37.0877C209.791 37.4794 209.522 37.9503 209.37 38.4634C209.219 38.9765 209.188 39.5178 209.281 40.0446L210.707 48.1085C210.849 48.9125 211.249 49.6483 211.847 50.2044C212.444 50.7606 213.207 51.1068 214.019 51.1907L222.888 52.1065C223.688 52.1891 224.494 52.0124 225.187 51.6023C225.879 51.1922 226.422 50.5704 226.734 49.8286L229.965 42.1481Z" fill="#E78300"/>
<path d="M335.526 53.0466C335.731 52.5591 335.819 52.0304 335.783 51.5027C335.747 50.975 335.588 50.463 335.319 50.0079C335.049 49.5528 334.677 49.1671 334.232 48.8818C333.786 48.5966 333.28 48.4196 332.754 48.3651L318.603 46.9025C318.071 46.8475 317.533 46.9167 317.032 47.1048C316.531 47.2929 316.081 47.5946 315.717 47.9863C315.352 48.3779 315.083 48.8488 314.932 49.3619C314.78 49.875 314.75 50.4163 314.843 50.9432L316.268 59.0071C316.41 59.8112 316.81 60.5471 317.408 61.1035C318.006 61.6598 318.768 62.0062 319.58 62.09L328.449 63.0059C329.25 63.0885 330.056 62.9118 330.748 62.5017C331.441 62.0916 331.983 61.4698 332.295 60.728L335.526 53.0466Z" fill="#E78300"/>
<path d="M225.707 41.6071C225.889 41.1183 225.956 40.5944 225.904 40.0757C225.852 39.5569 225.681 39.057 225.406 38.6141C225.131 38.1713 224.758 37.7973 224.316 37.5208C223.874 37.2442 223.374 37.0725 222.856 37.0187L222.697 37.0019L213.042 36.0039C212.51 35.9489 211.972 36.0182 211.471 36.2062C210.97 36.3943 210.52 36.696 210.155 37.0877C209.791 37.4794 209.522 37.9503 209.37 38.4634C209.219 38.9765 209.188 39.5178 209.281 40.0446L210.707 48.1085C210.849 48.9125 211.249 49.6482 211.847 50.2044C212.444 50.7606 213.207 51.1068 214.019 51.1906L218.96 51.7006C219.789 51.7858 220.622 51.5931 221.329 51.1528C222.037 50.7125 222.577 50.0496 222.866 49.2684L225.707 41.6071Z" fill="#FFAC00"/>
<path d="M331.269 52.5057C331.45 52.0168 331.517 51.493 331.465 50.9742C331.413 50.4555 331.243 49.9555 330.967 49.5127C330.692 49.0699 330.319 48.6959 329.877 48.4193C329.435 48.1428 328.936 47.9711 328.417 47.9173L328.259 47.9005L318.603 46.9025C318.071 46.8475 317.533 46.9167 317.032 47.1048C316.531 47.2929 316.081 47.5946 315.717 47.9863C315.352 48.3779 315.083 48.8488 314.932 49.3619C314.78 49.875 314.75 50.4163 314.843 50.9432L316.268 59.0071C316.41 59.8112 316.81 60.5472 317.408 61.1035C318.006 61.6598 318.768 62.0062 319.58 62.09L324.522 62.6C325.35 62.6852 326.184 62.4925 326.891 62.0522C327.598 61.6119 328.138 60.949 328.427 60.1678L331.269 52.5057Z" fill="#FFAC00"/>
<path d="M218.925 39.6795C218.961 39.3256 218.856 38.9718 218.631 38.6958C218.407 38.4198 218.082 38.2442 217.728 38.2076L214.312 37.8545C214.134 37.8295 213.952 37.8407 213.778 37.8875C213.604 37.9343 213.441 38.0158 213.299 38.127C213.157 38.2382 213.039 38.3768 212.951 38.5347C212.864 38.6926 212.81 38.8664 212.791 39.0458C212.773 39.2252 212.791 39.4065 212.844 39.5788C212.897 39.7512 212.984 39.911 213.1 40.0488C213.217 40.1867 213.36 40.2996 213.521 40.381C213.682 40.4624 213.857 40.5104 214.037 40.5224L217.453 40.8754C217.807 40.9118 218.161 40.8063 218.437 40.582C218.713 40.3578 218.888 40.0332 218.925 39.6795Z" fill="#FFDB00"/>
<path d="M324.483 50.5782C324.519 50.2243 324.414 49.8705 324.189 49.5945C323.965 49.3185 323.64 49.1429 323.286 49.1063L319.87 48.7532C319.692 48.7282 319.51 48.7394 319.336 48.7862C319.162 48.833 318.999 48.9145 318.857 49.0257C318.715 49.1369 318.597 49.2755 318.509 49.4334C318.422 49.5913 318.368 49.7651 318.349 49.9445C318.331 50.1239 318.349 50.3052 318.402 50.4775C318.455 50.6498 318.542 50.8097 318.659 50.9475C318.775 51.0853 318.918 51.1983 319.079 51.2797C319.24 51.361 319.415 51.4091 319.595 51.4211L323.011 51.7741C323.365 51.8105 323.719 51.705 323.995 51.4807C324.271 51.2565 324.446 50.9319 324.483 50.5782Z" fill="#FFDB00"/>
<path d="M227.808 47.2679L210.235 45.453L210.608 47.5656L226.972 49.2556L227.808 47.2679Z" fill="#8E3C06"/>
<path d="M333.369 58.1666L315.795 56.3517L316.169 58.4643L332.533 60.1543L333.369 58.1666Z" fill="#8E3C06"/>
<path d="M267.077 75.7777C268.734 75.9487 270.303 76.6072 271.585 77.6698C272.867 78.7323 273.806 80.1513 274.282 81.7473C274.758 83.3433 274.75 85.0445 274.259 86.6359C273.768 88.2273 272.816 89.6373 271.523 90.6877C270.231 91.7381 268.656 92.3817 266.998 92.537C265.34 92.6924 263.673 92.3525 262.208 91.5605C260.743 90.7684 259.546 89.5597 258.768 88.0872C257.99 86.6147 257.666 84.9446 257.837 83.288C258.068 81.0672 259.17 79.0287 260.903 77.6205C262.636 76.2123 264.856 75.5495 267.077 75.7777Z" fill="#402A77"/>
<path d="M254.967 77.957C255.009 77.4443 254.848 76.9357 254.519 76.5402C254.19 76.1447 253.719 75.8937 253.207 75.8409C252.696 75.788 252.184 75.9376 251.781 76.2575C251.378 76.5775 251.117 77.0424 251.052 77.5528L250.392 83.951C250.343 84.4677 250.5 84.9828 250.829 85.3841C251.158 85.7853 251.633 86.0404 252.149 86.0937C252.665 86.147 253.182 85.9942 253.586 85.6686C253.99 85.3431 254.249 84.871 254.307 84.3553L254.967 77.957Z" fill="#4B3286"/>
<path d="M282.961 80.8445C283.019 80.3287 283.278 79.8567 283.682 79.5311C284.087 79.2056 284.603 79.0528 285.119 79.1061C285.636 79.1594 286.11 79.4144 286.439 79.8157C286.768 80.217 286.926 80.732 286.877 81.2487L286.216 87.6462C286.195 87.9075 286.122 88.162 286.001 88.3948C285.88 88.6275 285.714 88.8337 285.513 89.0014C285.311 89.169 285.078 89.2947 284.827 89.3711C284.576 89.4474 284.313 89.4729 284.052 89.4459C283.791 89.419 283.538 89.3402 283.308 89.2142C283.078 89.0883 282.876 88.9176 282.713 88.7123C282.55 88.507 282.429 88.2711 282.358 88.0186C282.288 87.7661 282.268 87.5021 282.301 87.2419L282.961 80.8445Z" fill="#4B3286"/>
<path d="M283.188 78.6427C283.289 77.6579 282.995 76.6733 282.371 75.9051C281.747 75.1368 280.843 74.6479 279.858 74.5457L259.291 72.4222C258.306 72.3209 257.321 72.6147 256.553 73.239C255.785 73.8633 255.296 74.7671 255.194 75.7518L253.768 89.5547C253.667 90.5394 253.961 91.5241 254.585 92.2923C255.209 93.0605 256.113 93.5494 257.098 93.6516L277.665 95.7751C278.65 95.8764 279.634 95.5827 280.403 94.9583C281.171 94.334 281.66 93.4302 281.762 92.4456L283.188 78.6427Z" fill="#402A77"/>
<path d="M278.1 78.1177C278.202 77.1329 277.908 76.1483 277.284 75.3801C276.659 74.6118 275.756 74.1229 274.771 74.0207L259.291 72.4222C258.306 72.3209 257.321 72.6147 256.553 73.239C255.785 73.8633 255.296 74.7671 255.194 75.7518L253.768 89.5547C253.667 90.5394 253.961 91.5241 254.585 92.2923C255.209 93.0605 256.113 93.5494 257.098 93.6516L272.578 95.2501C273.563 95.3515 274.547 95.0577 275.315 94.4333C276.084 93.809 276.573 92.9052 276.675 91.9206L278.1 78.1177Z" fill="#4B3286"/>
<path d="M265.715 75.6371C267.371 75.8082 268.94 76.4666 270.222 77.5292C271.505 78.5918 272.443 80.0108 272.919 81.6068C273.395 83.2027 273.387 84.904 272.896 86.4954C272.405 88.0867 271.453 89.4968 270.161 90.5472C268.868 91.5976 267.294 92.2411 265.635 92.3965C263.977 92.5518 262.31 92.212 260.845 91.4199C259.38 90.6279 258.183 89.4192 257.405 87.9467C256.627 86.4742 256.303 84.8041 256.474 83.1475C256.705 80.9266 257.807 78.888 259.54 77.4797C261.273 76.0714 263.494 75.4087 265.715 75.6371Z" fill="#2E2A75"/>
<path d="M265.547 77.2689C266.881 77.4067 268.144 77.937 269.177 78.7929C270.21 79.6487 270.965 80.7915 271.349 82.0769C271.732 83.3623 271.725 84.7324 271.33 86.014C270.934 87.2957 270.168 88.4313 269.127 89.2772C268.086 90.1231 266.818 90.6414 265.482 90.7665C264.147 90.8916 262.804 90.6178 261.624 89.9799C260.445 89.342 259.48 88.3685 258.854 87.1826C258.227 85.9967 257.966 84.6516 258.104 83.3174C258.29 81.5288 259.178 79.887 260.574 78.7529C261.969 77.6187 263.758 77.085 265.547 77.2689Z" fill="#5A5DB9"/>
<path d="M265.472 78.6054C266.542 78.716 267.556 79.1415 268.385 79.8283C269.214 80.515 269.82 81.4321 270.128 82.4636C270.436 83.4951 270.43 84.5946 270.113 85.6231C269.796 86.6517 269.181 87.563 268.345 88.2419C267.51 88.9209 266.492 89.3368 265.421 89.4373C264.349 89.5377 263.272 89.3181 262.325 88.8062C261.378 88.2943 260.604 87.5131 260.101 86.5615C259.598 85.6098 259.389 84.5304 259.5 83.4597C259.648 82.0243 260.361 80.7068 261.481 79.7965C262.601 78.8863 264.036 78.4579 265.472 78.6054Z" fill="#5A44B9"/>
<path d="M265.163 80.7164C265.834 80.7856 266.469 81.0521 266.988 81.4822C267.507 81.9122 267.887 82.4866 268.079 83.1325C268.272 83.7785 268.269 84.4671 268.07 85.1112C267.871 85.7553 267.486 86.3261 266.963 86.7513C266.44 87.1766 265.803 87.4372 265.132 87.5002C264.461 87.5632 263.786 87.4258 263.193 87.1053C262.6 86.7848 262.115 86.2957 261.8 85.6998C261.485 85.1039 261.354 84.4279 261.423 83.7574C261.516 82.8582 261.962 82.0329 262.664 81.4626C263.365 80.8924 264.264 80.624 265.163 80.7164Z" fill="#342A75"/>
<path d="M262.955 79.0704C263.42 79.1183 263.86 79.303 264.22 79.6012C264.58 79.8994 264.843 80.2976 264.977 80.7455C265.111 81.1934 265.109 81.671 264.971 82.1176C264.833 82.5643 264.566 82.9602 264.203 83.255C263.841 83.5499 263.399 83.7307 262.933 83.7743C262.468 83.818 262 83.7227 261.589 83.5005C261.177 83.2782 260.842 82.939 260.623 82.5258C260.405 82.1125 260.314 81.6438 260.362 81.1788C260.426 80.5554 260.736 79.9832 261.222 79.5878C261.708 79.1925 262.331 79.0063 262.955 79.0704Z" fill="white"/>
<path d="M278.162 77.52C278.481 77.5529 278.783 77.6796 279.03 77.8841C279.277 78.0885 279.457 78.3616 279.549 78.6687C279.64 78.9758 279.639 79.3032 279.545 79.6095C279.45 79.9157 279.267 80.1871 279.018 80.3892C278.769 80.5913 278.466 80.7152 278.147 80.7451C277.828 80.7749 277.507 80.7095 277.226 80.5571C276.944 80.4046 276.713 80.172 276.564 79.8886C276.414 79.6053 276.352 79.2839 276.385 78.9651C276.429 78.5377 276.641 78.1454 276.974 77.8744C277.308 77.6034 277.735 77.4759 278.162 77.52Z" fill="#E78300"/>
<path d="M277.321 77.3246C277.461 77.3391 277.593 77.3947 277.701 77.4842C277.809 77.5738 277.888 77.6934 277.928 77.8278C277.968 77.9623 277.967 78.1056 277.926 78.2397C277.885 78.3737 277.804 78.4925 277.695 78.581C277.587 78.6694 277.454 78.7237 277.314 78.7368C277.175 78.7499 277.034 78.7213 276.911 78.6546C276.787 78.5879 276.687 78.4861 276.621 78.3621C276.555 78.2381 276.528 78.0974 276.542 77.9578C276.562 77.7706 276.655 77.5987 276.801 77.48C276.947 77.3613 277.134 77.3054 277.321 77.3246Z" fill="white"/>
<path d="M274.026 42.8765C274.057 42.5761 273.967 42.2757 273.777 42.0414C273.586 41.8071 273.31 41.658 273.01 41.6269L271.117 41.4314C270.816 41.4004 270.516 41.4899 270.282 41.6803C270.047 41.8707 269.898 42.1464 269.867 42.4467C269.836 42.7469 269.926 43.0473 270.116 43.2815C270.307 43.5158 270.582 43.6648 270.883 43.6959L272.776 43.8913C273.077 43.9222 273.377 43.8328 273.611 43.6425C273.845 43.4522 273.995 43.1767 274.026 42.8765Z" fill="#FFDB00"/>
<path d="M247.146 210.558H230.959V225.344H247.146V210.558Z" fill="#5A1CB9"/>
<path d="M168.295 230.671H152.108V245.457H168.295V230.671Z" fill="#5A1CB9"/>
<path d="M247.146 230.671H230.959V245.457H247.146V230.671Z" fill="#5A1CB9"/>
<path d="M122.914 265.914L321.807 239.901V250.07L122.914 276.043V265.914Z" fill="#5A1CB9"/>
<path d="M225.584 210.558H172.932V245.447H225.584V210.558Z" fill="#5A1CB9"/>
<path d="M262.955 418.463C262.769 418.463 262.592 418.39 262.461 418.259C262.33 418.128 262.256 417.95 262.256 417.765V416.07H262.058C261.437 416.07 260.84 415.823 260.401 415.384C259.961 414.944 259.714 414.348 259.714 413.727V408.22C259.715 407.599 259.963 407.003 260.402 406.564C260.841 406.125 261.437 405.878 262.058 405.877H269.417C269.725 405.876 270.03 405.936 270.315 406.054C270.599 406.172 270.858 406.345 271.075 406.563C271.512 407.004 271.759 407.599 271.761 408.22V413.727C271.759 414.348 271.512 414.943 271.073 415.382C270.634 415.821 270.038 416.069 269.417 416.07H265.968L263.413 418.291C263.286 418.402 263.123 418.463 262.955 418.463ZM262.058 407.275C261.807 407.275 261.567 407.374 261.389 407.552C261.212 407.729 261.112 407.97 261.112 408.221V413.727C261.112 413.978 261.212 414.219 261.389 414.396C261.567 414.574 261.807 414.673 262.058 414.673H262.955C263.141 414.674 263.318 414.747 263.449 414.878C263.58 415.009 263.654 415.187 263.654 415.372V416.231L265.248 414.845C265.375 414.734 265.538 414.673 265.706 414.673H269.417C269.668 414.673 269.908 414.574 270.086 414.396C270.263 414.219 270.363 413.978 270.363 413.727V408.221C270.363 407.969 270.263 407.728 270.086 407.55C269.998 407.461 269.893 407.391 269.778 407.344C269.663 407.296 269.539 407.272 269.415 407.273L262.058 407.275Z" fill="#00D789"/>
<path d="M122.913 96.5631C123.019 95.0203 123.554 93.5378 124.458 92.2832C125.362 91.0285 126.599 90.0516 128.029 89.4629C127.225 88.8058 126.644 87.9162 126.366 86.916C126.087 85.9158 126.125 84.854 126.474 83.8761C126.823 82.8982 127.465 82.0522 128.314 81.4539C129.162 80.8557 130.175 80.5345 131.213 80.5345C132.252 80.5345 133.265 80.8557 134.113 81.4539C134.962 82.0522 135.604 82.8982 135.953 83.8761C136.302 84.854 136.34 85.9158 136.061 86.916C135.783 87.9162 135.202 88.8058 134.398 89.4629C135.828 90.0516 137.065 91.0285 137.969 92.2832C138.873 93.5378 139.408 95.0203 139.514 96.5631C137.304 98.7494 134.32 99.9756 131.211 99.9756C128.102 99.9756 125.119 98.7494 122.908 96.5631H122.913Z" fill="white"/>
<path d="M335.208 391.377H411.459V392.075H334.859C334.813 392.075 334.767 392.066 334.725 392.049C334.682 392.031 334.644 392.005 334.611 391.973C334.579 391.94 334.553 391.902 334.535 391.859C334.518 391.817 334.509 391.772 334.509 391.726V380.152H335.207L335.208 391.377Z" fill="#F2A14A"/>
<path d="M337.333 186.193L411.458 196.043V204.363L337.333 195.138V186.193Z" fill="#5A1CB9"/>
<path d="M117.131 314.092L123.833 310.117C123.913 310.069 124.004 310.044 124.097 310.042C124.19 310.041 124.282 310.064 124.364 310.109C124.444 310.154 124.515 310.216 124.57 310.29C124.625 310.364 124.664 310.448 124.685 310.538C124.705 310.629 124.706 310.722 124.688 310.812C124.67 310.903 124.633 310.989 124.579 311.064L123.529 312.538C123.502 312.578 123.487 312.625 123.486 312.672C123.484 312.72 123.497 312.768 123.521 312.809C123.546 312.85 123.582 312.884 123.625 312.905C123.668 312.926 123.716 312.935 123.764 312.93C126.146 312.617 128.669 312.31 130.714 312.825C130.992 312.925 131.243 313.09 131.445 313.305C131.648 313.52 131.797 313.78 131.88 314.063C131.964 314.347 131.979 314.646 131.925 314.937C131.871 315.227 131.75 315.501 131.57 315.736C129.026 318.923 122.513 319.209 117.131 319.623V314.092Z" fill="#A95C48"/>
</svg>
