<svg width="288" height="152" viewBox="0 0 288 152" fill="none" xmlns="http://www.w3.org/2000/svg">
<path d="M269.32 125.985C276.407 125.985 282.152 120.241 282.152 113.156C282.152 106.071 276.407 100.327 269.32 100.327C262.232 100.327 256.487 106.071 256.487 113.156C256.487 120.241 262.232 125.985 269.32 125.985Z" fill="#00D789"/>
<path d="M269.32 108.335V150.389" stroke="#D5FDE9" stroke-width="1.5" stroke-miterlimit="1.5" stroke-linecap="round" stroke-linejoin="round"/>
<path d="M262.301 111.178L269.319 115.134" stroke="#D5FDE9" stroke-width="1.5" stroke-miterlimit="1.5" stroke-linecap="round" stroke-linejoin="round"/>
<path d="M274.713 115.134L269.32 118.919" stroke="#D5FDE9" stroke-width="1.5" stroke-miterlimit="1.5" stroke-linecap="round" stroke-linejoin="round"/>
<path d="M10.5034 40.6472C14.1381 34.2503 20.1065 32.5925 30.387 36.1042C28.3149 31.4206 34.5215 22.1824 44.4545 31.9612C41.4737 16.2616 65.0291 14.4448 63.8666 29.6351C69.755 22.2946 85.3138 26.4669 79.2615 35.2319C88.3493 32.9789 92.0289 35.0855 98.0012 40.6472H10.5034Z" fill="#CFE7F8"/>
<path d="M274.45 44.1618H247.211C246.191 40.6491 246.811 36.673 257.937 39.8685C261.418 33.4024 268.21 39.8607 274.45 44.1618Z" fill="#CFE7F8"/>
<path d="M264.659 23.0196H205.089C206.92 17.5184 217.703 12.9988 231.118 16.7856C235.033 9.50759 241.366 10.817 247.295 18.9547C255.138 14.0565 263.601 21.2154 264.659 23.0196Z" fill="#CFE7F8"/>
<path d="M191.154 50.3781V23.3503H172.938V37.1755L191.154 50.3781Z" fill="white"/>
<path d="M191.154 50.3781V23.3503H172.938V37.1755L191.154 50.3781Z" fill="white"/>
<path d="M172.938 36.308V37.1774L191.153 50.3781V36.308H172.938Z" fill="#FF9B00"/>
<path d="M176.749 25.6199H175.325V28.9149H176.749V25.6199Z" fill="#5A1CB9"/>
<path d="M180.755 25.6199H179.331V28.9149H180.755V25.6199Z" fill="#5A1CB9"/>
<path d="M184.76 25.6199H183.336V28.9149H184.76V25.6199Z" fill="#5A1CB9"/>
<path d="M188.766 25.6199H187.342V28.9149H188.766V25.6199Z" fill="#5A1CB9"/>
<path d="M251.555 151.286H217.442V75.3384L251.555 96.7986V151.286Z" fill="#FF9B00"/>
<path d="M251.555 108.88L217.438 83.192V75.3384L251.555 96.7986V108.88Z" fill="#FD7D00"/>
<path d="M217.442 150.518H29.0293V69.6878L121.66 2.10168L217.441 69.6878L217.442 150.518Z" fill="white"/>
<path d="M122.096 0.927856L28.9473 70.4567V79.814L120.603 11.9029L217.441 83.189V72.9409L122.096 0.927856Z" fill="#7421FF"/>
<path d="M122.096 0L21.5 72.1379L26.6856 78.2948L122.095 7.07895L251.623 103.795L256.456 97.3704L122.096 0Z" fill="#5A1CB9"/>
<path d="M230.564 88.2571H217.442V88.9889H230.564V88.2571Z" fill="#FD7D00"/>
<path d="M244.968 98.7023H217.442V99.434H244.968V98.7023Z" fill="#FD7D00"/>
<path d="M251.56 109.148H217.442V109.88H251.56V109.148Z" fill="#FD7D00"/>
<path d="M251.56 119.595H217.442V120.327H251.56V119.595Z" fill="#FD7D00"/>
<path d="M251.56 130.04H217.442V130.772H251.56V130.04Z" fill="#FD7D00"/>
<path d="M251.56 140.486H217.442V141.218H251.56V140.486Z" fill="#FD7D00"/>
<path d="M266.071 148.011H217.442V151.102H266.071V148.011Z" fill="#5A1CB9"/>
<path d="M93.0093 78.2363H94.077V42.0599H93.467L93.0093 78.2363Z" fill="#A36CFF"/>
<path d="M64.6251 93.9407H47.8911V94.2353H64.6251V93.9407Z" fill="#F43D4F"/>
<path d="M197.532 93.9407H180.798V94.2353H197.532V93.9407Z" fill="#F43D4F"/>
<path d="M44.8066 94.2363V100.704L47.8909 100.615V94.2363H44.8066Z" fill="#A36CFF"/>
<path d="M200.616 94.2363H197.532V96.2736L200.616 96.1839V94.2363Z" fill="#A36CFF"/>
<path d="M64.625 94.2363V100.13L113.848 98.7032V94.2363H64.625Z" fill="#A36CFF"/>
<path d="M130.581 94.2363V98.2183L180.799 96.7635V94.2363H130.581Z" fill="#A36CFF"/>
<path d="M180.798 146.384H130.581V150.991H180.798V146.384Z" fill="#7BBFBA"/>
<path d="M180.799 146.384H130.581V150.991H180.799V146.384Z" fill="#A36CFF"/>
<path d="M176.366 141.777H135.014V146.383H176.366V141.777Z" fill="#A36CFF"/>
<path d="M176.366 145.612H135.014V146.384H176.366V145.612Z" fill="#7421FF"/>
<path d="M113.847 106.521H64.6245V150.991H113.847V106.521Z" fill="#A36CFF"/>
<path d="M113.848 108.514H64.6255V109.246H113.848V108.514Z" fill="#7421FF"/>
<path d="M113.847 111.15H64.6245V111.881H113.847V111.15Z" fill="#7421FF"/>
<path d="M113.847 113.786H64.6245V114.518H113.847V113.786Z" fill="#7421FF"/>
<path d="M113.847 116.422H64.6245V117.153H113.847V116.422Z" fill="#7421FF"/>
<path d="M113.847 119.057H64.6245V119.789H113.847V119.057Z" fill="#7421FF"/>
<path d="M113.847 121.693H64.6245V122.424H113.847V121.693Z" fill="#7421FF"/>
<path d="M113.847 124.329H64.6245V125.061H113.847V124.329Z" fill="#7421FF"/>
<path d="M113.847 126.965H64.6245V127.697H113.847V126.965Z" fill="#7421FF"/>
<path d="M113.847 129.601H64.6245V130.333H113.847V129.601Z" fill="#7421FF"/>
<path d="M113.847 132.236H64.6245V132.968H113.847V132.236Z" fill="#7421FF"/>
<path d="M113.847 134.873H64.6245V135.604H113.847V134.873Z" fill="#7421FF"/>
<path d="M113.847 137.508H64.6245V138.24H113.847V137.508Z" fill="#7421FF"/>
<path d="M113.847 140.144H64.6245V140.876H113.847V140.144Z" fill="#7421FF"/>
<path d="M113.847 142.781H64.6245V143.513H113.847V142.781Z" fill="#7421FF"/>
<path d="M113.847 145.417H64.6245V146.148H113.847V145.417Z" fill="#7421FF"/>
<path d="M113.847 148.052H64.6245V148.784H113.847V148.052Z" fill="#7421FF"/>
<path d="M113.847 104.567H64.6245V106.52H113.847V104.567Z" fill="#5A1CB9"/>
<path d="M30.1542 151.103H1.66504C1.84347 150.415 2.1701 149.774 2.62209 149.226C3.07408 148.677 3.64051 148.234 4.28176 147.927C5.55747 147.411 6.98043 147.391 8.2698 147.872C8.0297 147.793 7.70664 147.3 7.53876 147.092C7.10854 146.609 6.82485 146.013 6.72085 145.375C6.62119 144.615 6.80424 143.844 7.23521 143.21C7.576 142.746 8.03716 142.384 8.56886 142.163C9.10057 141.942 9.68261 141.87 10.2521 141.956C10.3068 141.962 10.3614 141.97 10.4161 141.98C10.6319 142.017 10.8424 142.08 11.0427 142.168C11.9347 142.607 12.7229 143.231 13.3549 143.999C13.4798 144.14 13.6038 144.286 13.717 144.439C12.7698 143.556 11.9945 142.505 11.4302 141.339C9.82266 137.534 13.2222 132.013 17.4532 133.576C19.2543 134.573 20.6647 136.15 21.4549 138.05C18.0701 132.252 23.6803 128.73 25.6743 133.952C24.4416 129.65 26.2804 125.152 29.9961 127.676C30.0508 127.698 30.0937 127.727 30.1513 127.751L30.1542 151.103Z" fill="#00D789"/>
<path d="M30.1548 151.103H13.3672C13.4719 150.698 13.6642 150.32 13.9304 149.997C14.1966 149.673 14.5304 149.412 14.9083 149.232C15.6599 148.928 16.498 148.917 17.2576 149.2C17.0969 148.76 17.0987 148.277 17.2629 147.839C17.427 147.4 17.7426 147.035 18.1526 146.809C18.5398 146.681 18.9522 146.647 19.355 146.711C19.7579 146.775 20.1395 146.935 20.4678 147.177C19.8057 146.758 19.3248 146.106 19.1199 145.35C18.1731 143.106 20.1759 139.856 22.6687 140.777C23.7305 141.363 24.5621 142.292 25.0278 143.411C23.0337 139.996 26.3386 137.92 27.5137 140.994C26.3708 137.632 28.5756 135.66 30.149 136.418L30.1548 151.103Z" fill="#CBFFE8"/>
<path d="M12.7507 132.733C12.8971 132.872 13.0706 132.98 13.2603 133.049C13.4501 133.118 13.652 133.147 13.8536 133.135C13.8038 132.667 13.6198 132.222 13.3236 131.856C13.1773 131.717 13.0039 131.61 12.8144 131.541C12.6248 131.471 12.4231 131.442 12.2217 131.454C12.2708 131.922 12.4545 132.367 12.7507 132.733Z" fill="#00D789"/>
<path d="M25.7026 138.12C25.9252 138.547 26.3049 138.87 26.7616 139.022C26.8594 138.483 26.805 137.927 26.6044 137.418C26.3816 136.991 26.0019 136.669 25.5454 136.517C25.4475 137.056 25.502 137.611 25.7026 138.12Z" fill="#CBFFE8"/>
<path d="M14.1182 130.897C14.0231 131.558 14.1115 132.233 14.3739 132.848C14.8522 132.436 15.1858 131.881 15.3255 131.266C15.4214 130.602 15.3326 129.925 15.0689 129.309C14.5903 129.723 14.2572 130.28 14.1182 130.897Z" fill="#00D789"/>
<path d="M251.56 111.239H231.052V131.984H251.56V111.239Z" fill="white"/>
<path d="M251.56 112.988H232.821V130.235H251.56V112.988Z" fill="#5A1CB9"/>
<path d="M231.053 111.239H229.425V133.693H251.555V131.985H231.053V111.239Z" fill="#FD7D00"/>
<path d="M122.214 42.0599H94.0767V78.2363H122.214V42.0599Z" fill="white"/>
<path d="M107.094 43.6934H95.9087V76.318H107.094V43.6934Z" fill="#5A1CB9"/>
<path d="M120.321 43.6934H109.136V76.318H120.321V43.6934Z" fill="#5A1CB9"/>
<path d="M150.192 42.0599H122.055V78.2363H150.192V42.0599Z" fill="white"/>
<path d="M135.072 43.6934H123.887V76.318H135.072V43.6934Z" fill="#5A1CB9"/>
<path d="M148.3 43.6934H137.114V76.318H148.3V43.6934Z" fill="#5A1CB9"/>
<path d="M149.51 50.2229H95.1494V51.1176H149.51V50.2229Z" fill="white"/>
<path d="M166.836 104.364L144.548 105.34V103.795H166.836V104.364Z" fill="#A36CFF"/>
<path d="M143.908 141.777H144.934V102.889H143.908V141.777Z" fill="#A36CFF"/>
<path d="M166.446 141.777H167.472V102.889H166.446V141.777Z" fill="#A36CFF"/>
<path d="M163.108 130.347H148.271V139.052H163.108V130.347Z" fill="#5A1CB9"/>
<path d="M163.108 128.577V109.015H160.638C160.067 108.241 159.321 107.612 158.462 107.178C157.603 106.744 156.654 106.519 155.691 106.519C154.729 106.519 153.78 106.744 152.921 107.178C152.061 107.612 151.316 108.241 150.744 109.015H148.271V128.577H163.108Z" fill="#5A1CB9"/>
<path d="M170.566 101.68H140.813V103.796H170.566V101.68Z" fill="#5A1CB9"/>
<path d="M56.1343 69.5853H50.0312V77.9152H56.1343V69.5853Z" fill="#A36CFF"/>
<path d="M90.6216 69.5853H84.5186V77.9152H90.6216V69.5853Z" fill="#A36CFF"/>
<path d="M159.595 69.5853H153.492V77.9152H159.595V69.5853Z" fill="#A36CFF"/>
<path d="M125.108 69.5853H119.005V77.9152H125.108V69.5853Z" fill="#A36CFF"/>
<path d="M194.082 69.5853H187.979V77.9152H194.082V69.5853Z" fill="#A36CFF"/>
<path d="M56.1343 69.5853H50.0312V70.562H56.1343V69.5853Z" fill="#7421FF"/>
<path d="M90.6216 69.5853H84.5186V70.562H90.6216V69.5853Z" fill="#7421FF"/>
<path d="M159.595 69.5853H153.492V70.562H159.595V69.5853Z" fill="#7421FF"/>
<path d="M125.108 69.5853H119.005V70.562H125.108V69.5853Z" fill="#7421FF"/>
<path d="M194.082 69.5853H187.979V70.562H194.082V69.5853Z" fill="#7421FF"/>
<path d="M195.033 68.6086H48.8853V69.5844H195.033V68.6086Z" fill="#A36CFF"/>
<path d="M211.034 108.05H204.076V120.253H211.034V108.05Z" fill="#5A1CB9"/>
<path d="M203.1 106.968V121.189H212.28V121.692H202.693V106.968H203.1Z" fill="#A36CFF"/>
<path d="M41.8868 108.05H34.9287V120.253H41.8868V108.05Z" fill="#5A1CB9"/>
<path d="M33.9519 106.968V121.189H43.1324V121.692H33.5459V106.968H33.9519Z" fill="#A36CFF"/>
<path d="M121.526 31.9036V24.8617C119.703 24.9911 117.99 25.7844 116.713 27.0912L121.526 31.9036Z" fill="#5A1CB9"/>
<path d="M116.082 27.8152C115.098 29.1107 114.566 30.6933 114.567 32.3201V32.3299H120.598L116.082 27.8152Z" fill="#5A1CB9"/>
<path d="M127.087 26.7907C125.82 25.6368 124.194 24.9539 122.482 24.8568V31.3942L127.087 26.7907Z" fill="#5A1CB9"/>
<path d="M122.899 32.33H129.543V32.3202C129.544 30.5446 128.908 28.8273 127.752 27.4796L122.899 32.33Z" fill="#5A1CB9"/>
<path d="M130.619 33.5057H113.057V33.492C113.044 31.0075 113.935 28.603 115.564 26.7263C112.089 29.4369 112.284 34.1419 112.284 34.1507H130.621L130.619 33.5057Z" fill="#A36CFF"/>
<path d="M287.816 150.615H0V151.591H287.816V150.615Z" fill="#5A1CB9"/>
<path d="M47.8909 94.2363V100.615L46.6875 150.991H64.6239V94.2363H47.8909Z" fill="#FF9B00"/>
<path d="M180.798 94.2363V150.992H199.029L197.532 96.2737V94.2314L180.798 94.2363Z" fill="#FF9B00"/>
<path d="M113.847 94.2363V151.286H130.581V94.2363H113.847Z" fill="#FF9B00"/>
<path d="M47.8911 94.2363V96.2171H64.6251V94.2363H47.8911Z" fill="#FD7D00"/>
<path d="M180.798 94.2363V96.2171H197.532V94.2363H180.798Z" fill="#FD7D00"/>
<path d="M113.847 94.2363V96.2268H130.581V94.2363H113.847Z" fill="#FD7D00"/>
<path d="M200.616 94.2363H44.8063L44.123 77.5181L200.615 77.9152L200.616 94.2363Z" fill="#5A1CB9"/>
</svg>
