<svg width="305" height="149" viewBox="0 0 305 149" fill="none" xmlns="http://www.w3.org/2000/svg">
<path d="M145.524 21.1947H69.8818C70.2439 19.8608 72.235 15.2915 82.3564 17.0468C81.5066 16.3484 80.8512 15.4427 80.4535 14.4172C80.0558 13.3917 79.9293 12.281 80.0862 11.1924C80.2045 10.5401 80.5097 9.93607 80.9646 9.45367C81.4046 9.05113 81.9273 8.74944 82.496 8.56966C86.484 7.13533 93.4675 12.6307 93.4675 12.6307C84.9175 -0.807147 108.229 -6.44396 108.386 10.5582C108.386 10.5582 111.802 4.45206 115.544 6.14008C117.065 7.00946 116.13 9.62637 115.447 10.7729C126.37 5.46975 136.311 8.72382 131.681 14.7734C142.41 15.0007 145.524 21.1947 145.524 21.1947Z" fill="#CFE7F8"/>
<path d="M27.9683 67.6718C30.0443 64.0176 33.4535 63.0712 39.3263 65.0773C38.1433 62.3989 41.6892 57.1241 47.3629 62.7102C45.6607 53.7422 59.1171 52.704 58.4525 61.3812C61.8168 57.1856 70.7045 59.5712 67.2474 64.5787C72.4389 63.2917 74.5413 64.4948 77.9525 67.6718H27.9683Z" fill="#CFE7F8"/>
<path d="M63.7835 21.1946H39.9441C39.051 18.1181 39.5937 14.6406 49.3305 17.44C52.3777 11.7778 58.3226 17.4302 63.7835 21.1946Z" fill="#CFE7F8"/>
<path d="M278.947 49.2021H255.104C254.211 46.1256 254.754 42.6481 264.491 45.4485C266.849 41.0655 270.659 41.8548 274.231 46.754C280.461 41.8958 284.697 46.712 278.947 49.2021Z" fill="#CFE7F8"/>
<path d="M220.638 48.1991H240.685V28.1585L220.638 28.1585V48.1991Z" fill="white"/>
<path d="M220.638 40.9064L240.686 38.8115V28.1584H220.638V40.9064Z" fill="#A36CFF"/>
<path d="M198.79 16.0614L242.488 15.5735V37.9002H227.217L198.79 16.0614Z" fill="#5A1CB9"/>
<path d="M135.413 28.1584H115.367V48.199H135.413V28.1584Z" fill="white"/>
<path d="M135.412 40.9064L115.364 38.8115V28.1584H135.41L135.412 40.9064Z" fill="#A36CFF"/>
<path d="M157.262 16.0614L113.564 15.5735V37.9002H128.833L157.262 16.0614Z" fill="#5A1CB9"/>
<path d="M246.359 148.325H109.456V55.8167L177.908 2.95142L246.359 55.8176V148.325Z" fill="white"/>
<path d="M177.83 2.95142L109.378 55.8176V63.5259L123.196 52.8299V49.9027L167.841 13.5791V18.2792L175.011 12.7292L246.285 65.1066V55.8176L177.83 2.95142Z" fill="#A36CFF"/>
<path d="M123.2 148.325L167.84 148.146V18.2792L123.2 52.8328V148.325Z" fill="#7421FF"/>
<path d="M123.2 49.9096V52.8368L167.84 18.2831V13.5791L123.2 49.9096Z" fill="#A36CFF"/>
<path d="M177.914 0.60376L98.9199 59.1683L104.063 64.807L177.914 7.7715L251.765 64.807L256.776 58.014L177.914 0.60376Z" fill="#5A1CB9"/>
<path d="M159.787 103.477H131.066V140.403H159.787V103.477Z" fill="white"/>
<path d="M144.354 105.145H132.936V138.447H144.354V105.145Z" fill="#5A1CB9"/>
<path d="M157.855 105.145H146.438V138.447H157.855V105.145Z" fill="#5A1CB9"/>
<path d="M159.787 139.907H131.066V140.403H159.787V139.907Z" fill="#A36CFF"/>
<path d="M164.085 140.403H126.955V144.472H164.085V140.403Z" fill="white"/>
<path d="M165.898 144.361H125.143V148.325H165.898V144.361Z" fill="white"/>
<path d="M164.085 143.864H126.955V144.36H164.085V143.864Z" fill="#A36CFF"/>
<path d="M159.787 50.897H131.066V76.0329H159.787V50.897Z" fill="white"/>
<path d="M144.354 52.5645H132.937V74.0755H144.354V52.5645Z" fill="#5A1CB9"/>
<path d="M157.856 52.5645H146.438V74.0755H157.856V52.5645Z" fill="#5A1CB9"/>
<path d="M161.811 78.3668L129.042 79.9026V77.9111H161.811V78.3668Z" fill="#A36CFF"/>
<path d="M129.915 76.0329H131.067V50.897H130.445L129.915 76.0329Z" fill="#A36CFF"/>
<path d="M161.811 76.0328H129.042V77.9121H161.811V76.0328Z" fill="#5A1CB9"/>
<path d="M212.524 50.897H194.851V63.32H212.524V50.897Z" fill="#5A1CB9"/>
<path d="M193.294 50.897H175.946V63.32H193.294V50.897Z" fill="#5A1CB9"/>
<path d="M212.526 65.1866H173.983V50.897H173.368L172.807 66.4033L212.525 65.7037L212.526 65.1866Z" fill="#A36CFF"/>
<path d="M181.069 86.642L180.409 148.329H182.412V86.642H181.069Z" fill="#A36CFF"/>
<path d="M109.456 86.2097H11.27V148.325H109.456V86.2097Z" fill="#FF9B00"/>
<path d="M109.456 87.444L11.2681 90.9313V86.2097H109.456V87.444Z" fill="#FD7D00"/>
<path d="M109.456 86.2097H9.75244V79.7211L109.457 80.9671L109.456 86.2097Z" fill="#5A1CB9"/>
<path d="M92.7598 105.145H27.9683V148.325H92.7598V105.145Z" fill="white"/>
<path d="M92.7602 108.171H27.9688V108.902H92.7602V108.171Z" fill="#A36CFF"/>
<path d="M92.7598 110.644H27.9683V111.376H92.7598V110.644Z" fill="#A36CFF"/>
<path d="M92.7598 113.117H27.9683V113.849H92.7598V113.117Z" fill="#A36CFF"/>
<path d="M92.7598 115.591H27.9683V116.323H92.7598V115.591Z" fill="#A36CFF"/>
<path d="M92.7598 118.063H27.9683V118.795H92.7598V118.063Z" fill="#A36CFF"/>
<path d="M92.7598 120.537H27.9683V121.269H92.7598V120.537Z" fill="#A36CFF"/>
<path d="M92.7598 123.01H27.9683V123.742H92.7598V123.01Z" fill="#A36CFF"/>
<path d="M92.7598 125.484H27.9683V126.216H92.7598V125.484Z" fill="#A36CFF"/>
<path d="M92.7598 127.957H27.9683V128.689H92.7598V127.957Z" fill="#A36CFF"/>
<path d="M92.7598 130.431H27.9683V131.163H92.7598V130.431Z" fill="#A36CFF"/>
<path d="M92.7598 132.903H27.9683V133.635H92.7598V132.903Z" fill="#A36CFF"/>
<path d="M92.7598 135.377H27.9683V136.109H92.7598V135.377Z" fill="#A36CFF"/>
<path d="M92.7598 137.85H27.9683V138.582H92.7598V137.85Z" fill="#A36CFF"/>
<path d="M92.7598 140.324H27.9683V141.056H92.7598V140.324Z" fill="#A36CFF"/>
<path d="M92.7598 142.797H27.9683V143.529H92.7598V142.797Z" fill="#A36CFF"/>
<path d="M92.7598 145.271H27.9683V146.003H92.7598V145.271Z" fill="#A36CFF"/>
<path d="M93.7504 106.368H26.144V102.644L93.7494 103.36L93.7504 106.368Z" fill="#5A1CB9"/>
<path d="M109.387 148.325H107.353L108.225 86.2097H109.389L109.387 148.325Z" fill="#FD7D00"/>
<path d="M274.576 86.2097H182.411V148.325H274.576V86.2097Z" fill="#FF9B00"/>
<path d="M274.576 140.507H182.411V148.325H274.576V140.507Z" fill="#FD7D00"/>
<path d="M274.576 93.4233L182.411 97.7419V90.9352H274.576V93.4233Z" fill="#FD7D00"/>
<path d="M252.313 103.477H204.591V133.537H252.313V103.477Z" fill="white"/>
<path d="M214.597 105.145H206.425V131.663H214.597V105.145Z" fill="#5A1CB9"/>
<path d="M241.331 105.145H215.878V131.663H241.331V105.145Z" fill="#5A1CB9"/>
<path d="M250.785 105.145H242.614V131.663H250.785V105.145Z" fill="#5A1CB9"/>
<path d="M252.312 103.091H203.883L203.297 133.534H204.589V103.477H252.31L252.312 103.091Z" fill="#FD7D00"/>
<path d="M204.591 133.282H252.312V133.993L203.299 136.163V133.282H204.591Z" fill="#FD7D00"/>
<path d="M277.36 90.9353H181.863V86.4469L277.359 86.2605L277.36 90.9353Z" fill="white"/>
<path d="M277.36 87.527L181.864 88.6003V86.4537L277.36 86.2673V87.527Z" fill="#A36CFF"/>
<path d="M280.16 84.9638L256.149 72.7769H203.365L177.804 85.5053V86.9182L280.16 86.5132V84.9638Z" fill="#5A1CB9"/>
<path d="M187.098 89.5614H183.682V92.9248H187.098V89.5614Z" fill="white"/>
<path d="M193.463 89.5614H190.047V92.9248H193.463V89.5614Z" fill="white"/>
<path d="M199.828 89.5614H196.412V92.9248H199.828V89.5614Z" fill="white"/>
<path d="M206.191 89.5614H202.775V92.9248H206.191V89.5614Z" fill="white"/>
<path d="M212.556 89.5614H209.14V92.9248H212.556V89.5614Z" fill="white"/>
<path d="M225.284 89.5614H221.868V92.9248H225.284V89.5614Z" fill="white"/>
<path d="M218.921 89.5614H215.505V92.9248H218.921V89.5614Z" fill="white"/>
<path d="M231.65 89.5614H228.233V92.9248H231.65V89.5614Z" fill="white"/>
<path d="M238.014 89.5614H234.598V92.9248H238.014V89.5614Z" fill="white"/>
<path d="M244.378 89.5614H240.962V92.9248H244.378V89.5614Z" fill="white"/>
<path d="M250.742 89.5614H247.326V92.9248H250.742V89.5614Z" fill="white"/>
<path d="M257.107 89.5614H253.69V92.9248H257.107V89.5614Z" fill="white"/>
<path d="M269.835 89.5614H266.418V92.9248H269.835V89.5614Z" fill="white"/>
<path d="M263.471 89.5614H260.055V92.9248H263.471V89.5614Z" fill="white"/>
<path d="M276.2 89.5614H272.784V92.9248H276.2V89.5614Z" fill="white"/>
<path d="M187.098 90.9313H183.682V91.585H187.098V90.9313Z" fill="#A36CFF"/>
<path d="M193.463 90.9313H190.047V91.585H193.463V90.9313Z" fill="#A36CFF"/>
<path d="M199.828 90.9313H196.412V91.585H199.828V90.9313Z" fill="#A36CFF"/>
<path d="M206.191 90.9313H202.775V91.585H206.191V90.9313Z" fill="#A36CFF"/>
<path d="M212.556 90.9313H209.14V91.585H212.556V90.9313Z" fill="#A36CFF"/>
<path d="M225.284 90.9313H221.868V91.585H225.284V90.9313Z" fill="#A36CFF"/>
<path d="M218.921 90.9313H215.505V91.585H218.921V90.9313Z" fill="#A36CFF"/>
<path d="M231.65 90.9313H228.233V91.585H231.65V90.9313Z" fill="#A36CFF"/>
<path d="M238.014 90.9313H234.598V91.585H238.014V90.9313Z" fill="#A36CFF"/>
<path d="M244.378 90.9313H240.962V91.585H244.378V90.9313Z" fill="#A36CFF"/>
<path d="M250.742 90.9313H247.326V91.585H250.742V90.9313Z" fill="#A36CFF"/>
<path d="M257.107 90.9313H253.69V91.585H257.107V90.9313Z" fill="#A36CFF"/>
<path d="M269.835 90.9313H266.418V91.585H269.835V90.9313Z" fill="#A36CFF"/>
<path d="M263.471 90.9313H260.055V91.585H263.471V90.9313Z" fill="#A36CFF"/>
<path d="M276.2 90.9313H272.784V91.585H276.2V90.9313Z" fill="#A36CFF"/>
<path d="M8.79189 125.111H7.68701V148.325H8.79189V125.111Z" fill="#5A1CB9"/>
<path d="M10.914 118.183H3.78906C4.62808 118.185 5.43207 118.519 6.02535 119.112C6.61863 119.705 6.95295 120.509 6.95527 121.348V126.009L6.30037 126.285H13.6264C13.7468 126.285 13.8622 126.237 13.9473 126.152C14.0324 126.067 14.0802 125.952 14.0802 125.831V121.343C14.0769 120.505 13.7421 119.702 13.1489 119.11C12.5557 118.518 11.7523 118.185 10.914 118.183Z" fill="#5A1CB9"/>
<path d="M3.8611 118.185C3.03501 118.206 2.24968 118.548 1.67196 119.139C1.09423 119.729 0.769615 120.522 0.76709 121.348V125.949C0.76709 126.038 0.802477 126.124 0.865443 126.187C0.928409 126.25 1.01379 126.285 1.10284 126.285H6.61835C6.7074 126.285 6.79281 126.25 6.85578 126.187C6.91874 126.124 6.95413 126.038 6.95413 125.949V121.348C6.95186 120.522 6.62746 119.729 6.04989 119.139C5.47232 118.548 4.6871 118.206 3.8611 118.185Z" fill="white"/>
<path d="M9.66098 117.159V115.956H7.62207V120.152C7.62188 120.284 7.66086 120.413 7.7341 120.523C7.80734 120.633 7.91153 120.718 8.0335 120.769C8.15548 120.82 8.28976 120.833 8.41932 120.807C8.54889 120.782 8.66792 120.718 8.76138 120.625C8.85485 120.532 8.91852 120.413 8.94436 120.283C8.9702 120.154 8.95703 120.02 8.90653 119.897C8.85603 119.775 8.77049 119.671 8.66068 119.598C8.55087 119.524 8.42174 119.485 8.28966 119.485H8.28186V117.318L9.66098 117.159Z" fill="#FF9B00"/>
<path d="M129.977 140.405H131.067V103.477H130.444L129.977 140.405Z" fill="#A36CFF"/>
<path d="M279.062 148.272C277.136 145.443 274.67 143.857 271.433 144.745C269.3 139.907 262.836 140.697 261.259 145.706C258.233 144.84 255.576 146.141 253.06 148.272H279.062Z" fill="#CBFFE8"/>
<path d="M118.507 144.467C116.136 136.937 106.42 135.752 103.215 143.022C99.2054 141.921 95.9786 143.352 93.3453 146.276C92.503 145.399 91.3908 144.83 90.1867 144.66C88.9826 144.489 87.7561 144.728 86.7034 145.336C84.8666 139.503 77.3414 138.585 74.8574 144.217C71.0929 143.184 68.2204 145.026 65.9756 148.325H130.831C127.048 145.121 123.055 143.165 118.507 144.467Z" fill="#00D789"/>
<path d="M102.348 148.272C100.421 145.443 97.9511 143.857 94.7185 144.745C92.5849 139.907 86.1216 140.697 84.5443 145.706C81.5186 144.84 78.8619 146.141 76.3457 148.272H102.348Z" fill="#CBFFE8"/>
<path d="M115.432 138.072C115.067 138.335 114.623 138.466 114.173 138.444C114.189 138.219 114.25 138 114.353 137.8C114.456 137.6 114.598 137.422 114.772 137.278C114.945 137.135 115.145 137.027 115.361 136.963C115.577 136.899 115.804 136.879 116.027 136.904C115.967 137.35 115.757 137.762 115.432 138.072Z" fill="#00D789"/>
<path d="M113.86 136.404C113.78 136.546 113.666 136.665 113.529 136.751C113.391 136.837 113.234 136.888 113.072 136.899C112.91 136.91 112.748 136.881 112.6 136.814C112.452 136.747 112.324 136.644 112.225 136.515C112.127 136.385 112.062 136.234 112.037 136.074C112.011 135.913 112.026 135.749 112.079 135.596C112.133 135.443 112.224 135.305 112.344 135.196C112.464 135.086 112.609 135.008 112.766 134.968C113.283 135.309 113.669 135.816 113.86 136.404Z" fill="#00D789"/>
<path d="M81.8227 143.931C81.7215 143.992 81.6068 144.027 81.4888 144.033C81.3707 144.039 81.2531 144.016 81.1463 143.965C81.0396 143.914 80.9472 143.838 80.8772 143.743C80.8073 143.647 80.7621 143.536 80.7457 143.419C80.7293 143.302 80.7422 143.183 80.7832 143.072C80.8242 142.961 80.892 142.862 80.9807 142.784C81.0693 142.706 81.176 142.651 81.2911 142.624C81.4062 142.598 81.5261 142.6 81.6402 142.631C81.8471 143.031 81.9115 143.49 81.8227 143.931Z" fill="#CBFFE8"/>
<path d="M79.5782 143.475C80.0192 143.91 80.2994 144.481 80.3727 145.096C80.0638 145.127 79.7519 145.094 79.4559 145C79.1599 144.907 78.886 144.754 78.6508 144.552C78.4156 144.349 78.2239 144.101 78.0874 143.822C77.9508 143.544 77.8723 143.24 77.8564 142.93C78.4755 142.911 79.0826 143.103 79.5782 143.475Z" fill="#CBFFE8"/>
<path d="M21.2539 148.272C19.7996 146.134 17.9353 144.939 15.4953 145.609C13.8858 141.958 9.00668 142.553 7.81593 146.335C5.53203 145.682 3.5263 146.663 1.62793 148.272H21.2539Z" fill="#CBFFE8"/>
<path d="M13.1548 147.296C13.6986 146.462 14.5338 145.861 15.4972 145.609L15.2044 145.049C14.7238 145.258 14.2928 145.567 13.9396 145.954C13.5864 146.341 13.319 146.798 13.1548 147.296Z" fill="#00D789"/>
<path d="M7.81494 146.335C8.38391 146.59 8.89677 146.955 9.32391 147.409C9.0393 146.779 8.56719 146.253 7.9721 145.902L7.81494 146.335Z" fill="#00D789"/>
<path d="M304.519 147.837H0V148.813H304.519V147.837Z" fill="#5A1CB9"/>
</svg>
