<svg width="53" height="52" viewBox="0 0 53 52" fill="none" xmlns="http://www.w3.org/2000/svg">
<path fill-rule="evenodd" clip-rule="evenodd" d="M2.28952 15.4828H0.628384C0.345456 15.4828 0.0972955 15.2963 0.0224246 15.0273C-0.0524464 14.7584 0.0645513 14.4735 0.307928 14.3312C5.65559 11.2076 20.306 2.64992 24.3569 0.283541C25.0045 -0.0945137 25.8097 -0.0945137 26.4572 0.283541C30.5081 2.64992 45.1585 11.2076 50.5062 14.3312C50.7496 14.4735 50.8666 14.7584 50.7917 15.0273C50.7168 15.2963 50.4687 15.4828 50.1857 15.4828C49.313 15.4828 48.5246 15.4828 48.5246 15.4828V46.3915C48.5246 46.8972 48.321 47.3811 47.9588 47.7381C47.5964 48.0952 47.1048 48.2963 46.5925 48.2963C39.0651 48.2963 11.749 48.2963 4.22163 48.2963C3.70931 48.2963 3.21777 48.0952 2.85537 47.7381C2.49316 47.3811 2.28952 46.8972 2.28952 46.3915C2.28952 39.3923 2.28952 15.4828 2.28952 15.4828Z" fill="#5A1CB9"/>
<path fill-rule="evenodd" clip-rule="evenodd" d="M38.5699 42.4951C36.4295 44.09 33.6595 44.8602 30.8006 44.4198C25.2134 43.5553 21.3886 38.3865 22.2646 32.8824C23.1408 27.3765 28.388 23.6087 33.9753 24.4714C39.5625 25.3359 43.3874 30.5046 42.5112 36.0087C42.3631 36.9403 42.0899 37.8211 41.7115 38.6384C41.7115 38.6384 48.2983 44.7026 51.5906 47.7346C52.6002 48.6643 52.6539 50.2229 51.7104 51.2179H51.7102C50.7667 52.2129 49.1833 52.2655 48.1736 51.3357C44.9447 48.3635 38.5699 42.4951 38.5699 42.4951ZM32.1214 27.9692C35.6118 27.9692 38.4455 30.7602 38.4455 34.2C38.4455 37.638 35.6118 40.429 32.1214 40.429C28.631 40.429 25.7973 37.638 25.7973 34.2C25.7973 30.7602 28.631 27.9692 32.1214 27.9692Z" fill="#00D789"/>
</svg>
