<svg width="51" height="61" viewBox="0 0 51 61" fill="none" xmlns="http://www.w3.org/2000/svg">
<path d="M49.8008 27.3337V18.1936" stroke="#14142B" stroke-width="0.00231848" stroke-miterlimit="1.5" stroke-linecap="round" stroke-linejoin="round"/>
<path d="M49.8008 16.0026V14.5548" stroke="#14142B" stroke-width="0.00231848" stroke-miterlimit="1.5" stroke-linecap="round" stroke-linejoin="round"/>
<path fill-rule="evenodd" clip-rule="evenodd" d="M51 12.592V7.20797C51 3.23045 47.6908 0 43.699 0H7.35327C3.30897 0 0 3.23045 0 7.20797V43.0984C0 47.0759 3.30897 50.3065 7.35327 50.3065H43.699C47.6908 50.3065 51 47.0759 51 43.0984V33.0309C51 32.4384 50.475 31.9542 49.8972 31.9542C49.2669 31.9542 48.7939 32.4384 48.7939 33.0309V43.0984C48.7939 45.8806 46.4828 48.1425 43.699 48.1425H7.35327C4.51701 48.1425 2.20557 45.8806 2.20557 43.0984V7.20797C2.20557 4.42061 4.51701 2.15876 7.35327 2.15876H43.699C46.4828 2.15876 48.7939 4.42061 48.7939 7.20797V12.592C48.7939 13.1897 49.2669 13.6689 49.8972 13.6689C50.475 13.6689 51 13.1897 51 12.592Z" fill="#14142B"/>
<path fill-rule="evenodd" clip-rule="evenodd" d="M17.7041 10.9151H27.7887C29.2069 10.9048 30.6772 11.2777 31.9378 12.0029C34.8266 13.7176 36.4549 17.1161 36.5074 20.5351C36.56 23.9749 34.9844 27.4043 31.6228 29.1345C30.3098 29.8028 28.8916 30.1498 27.421 30.1498C25.5827 30.155 20.9604 30.155 18.8069 30.155V43.3598C18.8069 43.9556 18.3344 44.4374 17.7041 44.4374C17.1264 44.4374 16.6008 43.9556 16.6008 43.3598V11.9927V11.9771V11.9564V11.9356V11.9201V11.8994L16.6537 11.8786V11.8682V11.8476C16.7062 11.3192 17.1789 10.9151 17.7041 10.9151ZM18.8069 27.9948C20.9604 27.9948 25.5827 27.9948 27.421 27.9897C28.524 27.9897 29.6268 27.7255 30.6247 27.2178C33.1983 25.8813 34.3542 23.2133 34.3542 20.5609C34.3016 17.8879 33.0935 15.1941 30.835 13.8679C29.8896 13.3395 28.8392 13.0649 27.7887 13.0701H18.8069V27.9948Z" fill="#14142B"/>
<path fill-rule="evenodd" clip-rule="evenodd" d="M23.9775 54.576V61H27.2869V54.576H23.9775Z" fill="#14142B"/>
</svg>
