<svg width="60" height="40" viewBox="0 0 60 40" fill="none" xmlns="http://www.w3.org/2000/svg">
<path fill-rule="evenodd" clip-rule="evenodd" d="M54.1689 1.8013C54.0821 1.32346 53.8038 0.897401 53.3953 0.616387C52.9869 0.335375 52.4818 0.222565 51.9909 0.302918C43.0605 1.76455 4.84738 8.01884 4.84738 8.01884L7.80112 39.4608L57.7225 31.8455C58.2134 31.7651 58.6495 31.4984 58.9351 31.1031C59.221 30.7095 59.3326 30.2186 59.246 29.7418C58.2363 24.1853 55.1783 7.35636 54.1689 1.8013Z" fill="#00D789"/>
<path fill-rule="evenodd" clip-rule="evenodd" d="M59.2767 9.46072C59.2767 8.97844 59.0783 8.5162 58.7252 8.17524C58.3721 7.83429 57.8934 7.6427 57.394 7.6427C48.5026 7.6427 10.774 7.6427 1.88268 7.6427C1.38325 7.6427 0.904565 7.83429 0.551482 8.17524C0.198399 8.5162 0 8.97844 0 9.46072C0 15.0674 0 32.0527 0 37.6608C0 38.142 0.198399 38.6053 0.551482 38.9452C0.904565 39.2868 1.38325 39.4783 1.88268 39.4783C10.774 39.4783 48.5026 39.4783 57.394 39.4783C57.8934 39.4783 58.3721 39.2868 58.7252 38.9452C59.0783 38.6053 59.2767 38.142 59.2767 37.6608C59.2767 32.0527 59.2767 15.0674 59.2767 9.46072Z" fill="#5A1CB9"/>
<path d="M59.2767 16.6553H0V23.5407H59.2767V16.6553Z" fill="#00D789"/>
<path fill-rule="evenodd" clip-rule="evenodd" d="M47.6197 35.7215C46.7749 36.4513 45.6601 36.895 44.439 36.895C41.8031 36.895 39.6631 34.8271 39.6631 32.2833C39.6631 29.7377 41.8031 27.6698 44.439 27.6698C45.6601 27.6698 46.7749 28.1134 47.6197 28.8433C46.6408 29.6876 46.0243 30.9166 46.0243 32.2833C46.0243 33.6482 46.6408 34.8771 47.6197 35.7215ZM47.6197 28.8433C48.4642 28.1134 49.5791 27.6698 50.8002 27.6698C53.4361 27.6698 55.5761 29.7377 55.5761 32.2833C55.5761 34.8271 53.4361 36.895 50.8002 36.895C49.5791 36.895 48.4642 36.4513 47.6197 35.7215C48.5983 34.8771 49.2149 33.6482 49.2149 32.2833C49.2149 30.9166 48.5983 29.6876 47.6197 28.8433Z" fill="#00D789"/>
</svg>
